<?xml version="1.0" encoding="utf-8"?>
<!-- Generator: Adobe Illustrator 20.1.0, SVG Export Plug-In . SVG Version: 6.00 Build 0)  -->
<svg version="1.1" id="Layer_1" xmlns="http://www.w3.org/2000/svg" xmlns:xlink="http://www.w3.org/1999/xlink" x="0px" y="0px"
	 viewBox="0 0 259.6 201.7" style="enable-background:new 0 0 259.6 201.7;" xml:space="preserve">
<style type="text/css">
	.st0{fill:#864444;}
	.st1{fill:#F8DBB1;}
	.st2{fill:#FEFEFE;}
	.st3{fill:#663434;}
</style>
<g>
	<path class="st0" d="M0,34.9c5.2-8.8,12.7-13.8,23-14.2c5.1-0.2,9.8,1.2,14.2,3.8c0.8,0.5,1.4,1.6,2.6,1c0-1-0.9-1.4-1.5-2
		c-4.6-4.9-7-10.7-7.3-17.3c-0.2-3.4,1.7-5.8,4.7-6.1c2.7-0.2,4.8,1.7,5.4,4.9c0.1,0.7,0.2,1.3,0.3,2c0.8,8,7.2,14.3,15.2,14.7
		c5.2,0.2,10.5,0.2,15.7,0c8-0.4,14.4-6.8,15.2-14.8c0.1-0.7,0.1-1.4,0.2-2c0.5-2.9,2.7-4.9,5.3-4.7C96,0.2,98,2.4,97.9,5.5
		c-0.1,6.9-2.6,12.8-7.2,17.9c-0.5,0.6-1.4,1-1.5,2.1c1.1,0.5,1.7-0.4,2.4-0.8c12.4-7.7,28.3-4,36.2,8.3c1.5,2.3,1.5,4.5,0,6.8
		c-2.2,3.4-5.1,6.2-8.8,8.6c1.2,0.6,2.2,0.4,3.1,0.4c29.2,0,58.5,0,87.7,0c9.7,0,18.5,2.4,26.2,8.4c9.5,7.4,15.1,17.1,15.7,29.2
		c0.3,6.4,1.8,12.3,3.6,18.2c1.3,4.3,2.6,8.5,3.8,12.8c1.2,4.1-1,7.1-5.2,7.2c-4.6,0.1-9.3,0.1-13.9,0c-4.4-0.1-6.6-3-5.4-7.3
		c1.9-6.5,3.7-13,5.9-19.4c2.8-8.4,1.4-16.2-2.7-23.6C233.6,67,227.3,62.1,219,60c-1.5-0.4-1.5-0.4-3.7,0
		c7.8,8.2,11.7,17.9,11.6,29.2c-0.1,20.1,0.1,40.2-0.1,60.3c-0.1,6.6-1.8,13-2.8,19.5c-1.4,9.1-2.9,18.2-4.4,27.2
		c-0.6,3.7-2.4,5.3-6.2,5.3c-11.7,0-23.3,0-35,0c-4.2,0-6.2-2.1-6.1-6.3c0.1-9.1,0.2-18.3,0.5-27.4c0-1.8-0.4-2.3-2.2-2.2
		c-5.6,0.3-5.6,0.2-5.8,5.7c-0.1,3.4-2,5.5-4.9,5.6c-2.9,0.1-5-2-5.2-5.3c-0.1-2.1,0-4.2,0-6.3c0-0.8,0.1-1.7-0.9-2.1
		c-0.2-0.1-0.3-0.1-0.5-0.2c-1.9-1-3.9-1.9-6-3c-0.1,1.3-0.1,2.5-0.2,3.6c-0.3,2.5-2.1,4.1-4.6,4.3c-2.5,0.1-4.4-1.2-5.1-3.6
		c-0.7-2.5-0.2-5-0.3-7.6c-0.1-2.2,0.1-4.4,0-6.6c-0.1-2.4-1.3-3.4-3.6-3.5c-3.9,0-7.8,0-11.7-0.1c-1.5,0-2,0.4-2.1,1.9
		c-0.9,12-1.9,23.9-2.9,35.9c-0.3,4-0.6,7.9-1,11.9c-0.3,3.3-2,5.3-5.3,5.3c-11.8,0.1-23.7,0.1-35.5,0c-3.3,0-5.1-1.9-5.4-5.2
		c-1.4-16.1-2.7-32.2-4-48.2c0-0.3,0-0.5,0-0.8c0-5.1-1.2-9.2-5.4-13c-8-7.3-11.1-17.1-10.9-27.9c0-2.1-0.4-2.7-2.6-2.7
		c-8.3-0.1-14-6-14.2-14.4c-0.1-4.6,0-9.2,3.2-12.9c0.2-0.2,0.3-0.5,0.5-0.6c3.5-1.8,2.7-4.8,2.3-7.8c-0.9-5.6-1.6-11.2-2.3-16.8
		c-0.2-1.2-0.1-2.2-1.9-1.4C21.3,55.6,6.4,49.8,0.2,38c0-0.1-0.1-0.1-0.2-0.1C0,36.9,0,35.9,0,34.9z M148.6,146.6
		c-0.3,0-0.6-0.1-0.4,0.3c3.8,4.8,8.8,7.2,14.6,8.4c6.7,1.4,12.9,0.1,18.8-3.4c-6.7-5.7-6.7-5.7-11.4-5.4
		C163,146.6,155.8,146.6,148.6,146.6z M140.9,58.8C140.9,58.7,140.9,58.7,140.9,58.8c-15.6-0.1-31.1-0.1-46.7-0.1
		c-1.7,0-2.5,0.3-2.6,2.2c-0.3,3.8-0.9,7.5-1.5,11.2c-0.2,1,0.2,1.6,0.9,2.1c6.6,5.1,6.4,12.1,5,19.1c-1.4,6.6-7.1,10.4-14.3,10.5
		c-6.8,0.1-13.5,0-20.3,0c-0.9,0-2.1-0.5-2.1,1.3c-0.4,10.1,2.9,18.5,10.7,25c5.3,4.4,11.5,6,18.2,6.5c3.7,0.3,5,2.1,5.2,5.8
		c0.3,4.8,0.7,9.6,1.1,14.4c0.8,9.8,1.7,19.7,2.4,29.5c0.4,5.2,0.2,5.2,5.3,5.2c0.8,0,1.5-0.1,2.3,0c1.2,0.1,1.6-0.4,1.6-1.6
		c0.1-2.4,0.3-4.9,0.5-7.3c1.2-13.5,2.3-27,3.5-40.6c0.3-3.7,1.9-5.4,5.6-5.4c20.5,0,40.9,0,61.4,0c2,0,3.6,0.7,4.9,2.2
		c4,4.5,8.9,7.4,14.7,8.8c3.7,0.9,4.8,2.6,4.7,6.4c-0.1,10.1-0.4,20.3-0.4,30.4c0,2.3-1.1,5.5,0.5,6.7c1.5,1.2,4.5,0.3,6.9,0.4
		c1.4,0.1,2-0.2,2.3-1.8c1.2-8,2.6-15.9,3.9-23.9c0.9-5.7,2.3-11.5,2.4-17.2c0.3-19.9,0.2-39.7,0.1-59.6c0-6.6-1.6-12.9-5.6-18.3
		c-6.2-8.2-14.6-11.9-24.7-12C171.4,58.7,156.1,58.8,140.9,58.8z M45.3,44.8c0.6,0.3,0.9-0.1,1.3-0.3c2.1-1.5,4.2-1.1,6,0.5
		c1.7,1.5,1.9,3.6,0.9,5.6c-1.1,2.1-3.1,3.2-5.5,2.4c-1.3-0.4-1.5,0-1.3,1.1c0.7,5.4,1.4,10.8,2.1,16.3c0.2,1.2,1,1.1,1.9,1.1
		c9.3,0,18.6,0,27.9,0c1.2,0,1.6-0.3,1.8-1.5c0.4-3,0.9-6,1.3-9c0.4-2.8,0.7-5.6,1.1-8.5c-3.4,1-5.5,0.6-6.8-1.4
		c-1.3-1.9-1.1-3.9,0.2-5.6c1.5-1.9,3.8-2,7.5-0.4c0.6-2.5,1-5,1-7.5c0-3-2.4-5.5-5.4-5.6c-9.8-0.1-19.6-0.1-29.4,0
		c-3.2,0-5.8,3-5.5,6.1C44.6,40.2,45,42.5,45.3,44.8z M83.1,191.5c4.6,0,4.5,0,3.9-4.6c-0.6-5.2-0.9-10.4-1.3-15.6
		c-0.7-7.9-1.4-15.8-2-23.7c-0.1-0.9-0.3-1.5-1.2-1.6c-2-0.1-4-0.8-5.9-1.3c-1.2-0.3-1.3-0.1-1.2,1c0.3,2.4,0.5,4.9,0.7,7.3
		c0.9,11.4,1.7,22.9,2.6,34.3C79,191.5,79,191.5,83.1,191.5z M191.3,157.4c-2.5,1.6-4.4,3.3-6.7,4.2c-1.2,0.5-1.5,1.3-1.5,2.5
		c-0.1,7.1-0.3,14.2-0.4,21.3c-0.1,6.2,0,6.2,6.2,6.1c1.5,0,2-0.4,2-2C191.3,179.1,191.1,168.5,191.3,157.4z M105.7,30.8
		c-3.8,0-7.1,1.1-9.8,3.2c-1.8,1.4-1.8,3.3,0,4.7c6,4.8,15.7,4.2,21-1.3c0.9-0.9,0.9-1.4,0-2.2C113.6,32.4,110,30.8,105.7,30.8z
		 M23.7,30.7c-4.3,0.1-8,1.5-11.2,4.4c-1,0.9-0.9,1.4,0,2.4c5.3,5.4,15.2,6,21,1c1.5-1.3,1.5-3.3,0-4.5
		C30.6,31.9,27.3,30.7,23.7,30.7z M247.2,108.1c-0.2,0-0.3,0-0.5,0c-0.7,2.4-1.4,4.8-2.2,7.5c1.1,0,2-0.1,2.9,0
		c1.9,0.2,2.1-0.6,1.6-2.1C248.3,111.7,247.8,109.9,247.2,108.1z M83.6,93.4c0-0.1,0-0.1,0-0.2c-12.6,0-25.2,0-37.9,0
		c0,0.1,0,0.1,0,0.2C58.4,93.4,71,93.4,83.6,93.4z"/>
	<path class="st1" d="M140.9,58.8c15.2,0,30.4-0.1,45.6,0c10.1,0,18.6,3.8,24.7,12c4.1,5.4,5.6,11.7,5.6,18.3
		c0.1,19.9,0.2,39.7-0.1,59.6c-0.1,5.8-1.5,11.5-2.4,17.2c-1.3,8-2.7,15.9-3.9,23.9c-0.2,1.6-0.9,1.9-2.3,1.8
		c-2.4-0.1-5.4,0.7-6.9-0.4c-1.6-1.3-0.5-4.4-0.5-6.7c0.1-10.1,0.3-20.3,0.4-30.4c0.1-3.8-1-5.5-4.7-6.4c-5.9-1.4-10.8-4.3-14.7-8.8
		c-1.3-1.5-2.9-2.2-4.9-2.2c-20.5,0-40.9,0-61.4,0c-3.7,0-5.3,1.7-5.6,5.4c-1.1,13.5-2.3,27-3.5,40.6c-0.2,2.4-0.5,4.9-0.5,7.3
		c0,1.2-0.4,1.7-1.6,1.6c-0.8-0.1-1.5,0-2.3,0c-5,0-4.9,0-5.3-5.2c-0.7-9.8-1.6-19.7-2.4-29.5c-0.4-4.8-0.8-9.6-1.1-14.4
		c-0.2-3.7-1.5-5.5-5.2-5.8c-6.7-0.5-12.9-2.2-18.2-6.5c-7.8-6.5-11.2-14.9-10.7-25c0.1-1.7,1.2-1.3,2.1-1.3c6.8,0,13.5,0.1,20.3,0
		c7.2-0.1,12.9-3.9,14.3-10.5c1.5-7,1.6-14-5-19.1c-0.7-0.5-1-1.1-0.9-2.1c0.6-3.7,1.2-7.5,1.5-11.2c0.2-1.9,0.9-2.2,2.6-2.2
		C109.8,58.7,125.4,58.7,140.9,58.8C140.9,58.7,140.9,58.7,140.9,58.8z M176.6,72.9C176.6,72.9,176.6,72.8,176.6,72.9
		c-4.3-0.1-8.6-0.2-12.9-0.1c-3.3,0.1-5.3,2.2-5.1,5.3c0.2,3.1,2.3,4.8,6.2,4.8c7,0,14,0,21,0c5,0,5.9,0.7,7.2,5.5
		c0.8,3,2.8,4.6,5.6,4.2c2.7-0.4,4.3-2.5,4.3-5.6c-0.1-7.1-6.3-13.7-13.4-14.1C185.3,72.7,180.9,72.9,176.6,72.9z"/>
	<path class="st1" d="M45.3,44.8c-0.3-2.2-0.8-4.5-1-6.8c-0.3-3.1,2.3-6,5.5-6.1c9.8-0.1,19.6-0.1,29.4,0c3,0,5.4,2.5,5.4,5.6
		c0,2.5-0.5,5-1,7.5c-3.7-1.6-6-1.5-7.5,0.4c-1.4,1.8-1.5,3.7-0.2,5.6c1.3,2,3.4,2.5,6.8,1.4c-0.4,2.9-0.7,5.7-1.1,8.5
		c-0.4,3-0.9,6-1.3,9c-0.1,1.2-0.6,1.5-1.8,1.5c-9.3,0-18.6,0-27.9,0c-0.8,0-1.7,0.1-1.9-1.1c-0.7-5.4-1.4-10.8-2.1-16.3
		c-0.1-1.1,0-1.5,1.3-1.1c2.5,0.8,4.4-0.3,5.5-2.4c1-1.9,0.8-4-0.9-5.6c-1.8-1.6-3.8-2-6-0.5C46.3,44.7,46,45,45.3,44.8z"/>
	<path class="st1" d="M83.1,191.5c-4.1,0-4.1,0-4.4-4.2c-0.9-11.4-1.7-22.9-2.6-34.3c-0.2-2.4-0.4-4.9-0.7-7.3c-0.1-1.1,0-1.3,1.2-1
		c1.9,0.6,3.9,1.2,5.9,1.3c0.9,0.1,1.2,0.7,1.2,1.6c0.6,7.9,1.3,15.8,2,23.7c0.4,5.2,0.8,10.4,1.3,15.6
		C87.6,191.6,87.7,191.5,83.1,191.5z"/>
	<path class="st1" d="M191.3,157.4c-0.1,11.1,0.1,21.6-0.4,32.2c-0.1,1.5-0.5,2-2,2c-6.2,0.1-6.2,0.1-6.2-6.1
		c0.1-7.1,0.3-14.2,0.4-21.3c0-1.3,0.4-2,1.5-2.5C186.9,160.7,188.8,159,191.3,157.4z"/>
	<path class="st1" d="M105.7,30.8c4.3,0.1,8,1.6,11.2,4.5c0.9,0.8,0.9,1.3,0,2.2c-5.3,5.4-15,6-21,1.3c-1.8-1.4-1.8-3.3,0-4.7
		C98.6,31.8,101.9,30.8,105.7,30.8z"/>
	<path class="st1" d="M23.7,30.7c3.7,0,6.9,1.2,9.8,3.4c1.5,1.2,1.5,3.2,0,4.5c-5.8,4.9-15.7,4.4-21-1c-0.9-0.9-1-1.5,0-2.4
		C15.7,32.2,19.4,30.8,23.7,30.7z"/>
	<path class="st2" d="M162.8,155.4c-5.8-1.2-10.9-3.7-14.6-8.4c0.1-0.1,0.3-0.2,0.4-0.3c7.2,0,14.4,0,21.6,0c-0.3,1.2-1.2,2-2,2.9
		C166.4,151.5,164,152.9,162.8,155.4z"/>
	<path class="st1" d="M162.8,155.4c1.2-2.5,3.6-3.9,5.4-5.9c0.8-0.9,1.7-1.6,2-2.9c4.7-0.3,4.7-0.3,11.4,5.4
		C175.7,155.5,169.5,156.7,162.8,155.4z"/>
	<path class="st1" d="M247.2,108.1c0.6,1.8,1.1,3.6,1.7,5.4c0.5,1.5,0.3,2.3-1.6,2.1c-0.9-0.1-1.8,0-2.9,0c0.8-2.7,1.5-5.1,2.2-7.5
		C246.9,108.1,247,108.1,247.2,108.1z"/>
	<path class="st1" d="M83.6,93.4c-12.6,0-25.2,0-37.9,0c0-0.1,0-0.1,0-0.2c12.6,0,25.2,0,37.9,0C83.6,93.3,83.6,93.4,83.6,93.4z"/>
	<path class="st1" d="M148.6,146.6c-0.1,0.1-0.3,0.2-0.4,0.3C148,146.4,148.3,146.5,148.6,146.6z"/>
	<path class="st3" d="M176.6,72.9c4.3,0,8.6-0.2,12.9,0c7.1,0.4,13.2,7,13.4,14.1c0.1,3.1-1.6,5.3-4.3,5.6c-2.8,0.4-4.8-1.2-5.6-4.2
		c-1.2-4.8-2.1-5.5-7.2-5.5c-7,0-14,0-21,0c-3.9,0-6.1-1.7-6.2-4.8c-0.2-3,1.8-5.2,5.1-5.3C168,72.7,172.3,72.8,176.6,72.9
		C176.6,72.8,176.6,72.9,176.6,72.9z"/>
</g>
</svg>
