<?xml version="1.0" encoding="utf-8"?>
<!-- Generator: Adobe Illustrator 20.1.0, SVG Export Plug-In . SVG Version: 6.00 Build 0)  -->
<svg version="1.1" id="Layer_1" xmlns="http://www.w3.org/2000/svg" xmlns:xlink="http://www.w3.org/1999/xlink" x="0px" y="0px"
	 viewBox="0 0 409.8 366.5" style="enable-background:new 0 0 409.8 366.5;" xml:space="preserve">
<style type="text/css">
	.st0{fill:#5ED1F6;}
	.st1{fill:#FADBBF;}
	.st2{fill:#F9B743;}
	.st3{fill:#41CAF6;}
	.st4{fill:#805959;}
</style>
<path class="st0" d="M393.6,122.9c5.6,0,10.2,4.6,10.2,10.2s-4.6,10.2-10.2,10.2c-3.8,0-60.8,0-64.2,0c-5.6,0-10.2-4.6-10.2-10.2
	c0-5.6,4.6-10.2,10.2-10.2c1.6,0,3.1,0.4,4.4,1c1.8-6.3,7.6-10.8,14.5-10.8c1.4,0,2.8,0.2,4.1,0.6c3.3-7.1,10.5-12,18.9-12
	c11.5,0,20.8,9.3,20.8,20.8c0,0.2,0,0.4,0,0.6C392.5,122.9,393,122.9,393.6,122.9z"/>
<polygon class="st1" points="386.2,326.8 395.2,360.5 7.9,360.5 16.9,326.8 46.4,326.8 130.1,326.8 183.5,326.8 219.6,326.8 
	273,326.8 356.7,326.8 "/>
<g>
	<path class="st2" d="M375.7,281c4.9,4.9,7.9,11.6,7.9,19c0,14.8-12,26.9-26.9,26.9H273c58.4-8,78.6-53.7,78.6-53.7h5.1
		C364.1,273.1,370.8,276.1,375.7,281z"/>
	<path class="st2" d="M305.7,273.1h45.9c0,0-20.2,45.7-78.6,53.7h-53.3c44.1-8,59.3-53.7,59.3-53.7H305.7z"/>
	<path class="st2" d="M254,245.1l-19.4,8.8H210h-41.5l-18.6-8.4c0,0-15.3,8.7-11.1,27.7h-14.7H97.5l9.3-123.7
		c1-12.9,9.8-23.8,22.1-27.6l45.3-13.8v64.1v9.2c0,8.1,3.3,15.4,8.6,20.7c4.9,4.9,11.5,8.1,18.9,8.5c-0.6,0-1.2,0.1-1.8,0.1h3.6
		c-0.6,0-1.2,0-1.8-0.1c15.3-0.9,27.5-13.6,27.5-29.2v-9.2V108l45.2,13.8c12.4,3.8,21.1,14.7,22.1,27.6l9.3,123.7H279h-13.7
		c4.3-19-11.1-27.7-11.1-27.7L254,245.1z"/>
	<path class="st2" d="M265.2,273.1H279c0,0-15.2,45.7-59.3,53.7h-36.2c-44.1-8-59.3-53.7-59.3-53.7h14.7h95.4H265.2z"/>
	<path class="st2" d="M254.2,245.5c0,0,15.3,8.7,11.1,27.7h-31l-6.5-9.7c-4-6-10.6-9.5-17.8-9.5h24.7l19.4-8.8L254.2,245.5z"/>
	<path class="st2" d="M227.8,263.4l6.5,9.7h-95.4c-4.3-19,11.1-27.7,11.1-27.7l18.6,8.4H210C217.1,253.9,223.8,257.5,227.8,263.4z"
		/>
	<path class="st2" d="M233.2,63.3v5c0,8.7-3.5,16.7-9.3,22.4c-5.7,5.7-13.6,9.3-22.4,9.3c-17.5,0-31.7-14.2-31.7-31.7v-5
		c2.5-8,9.9-13.9,18.8-13.9c4.9,0,9.4,1.8,12.9,4.8c3.5-3,7.9-4.8,12.9-4.8C223.3,49.4,230.7,55.3,233.2,63.3z"/>
	<path class="st2" d="M233.2,61.1v2.2c-2.5-8-9.9-13.9-18.8-13.9c-4.9,0-9.4,1.8-12.9,4.8c-3.5-3-7.9-4.8-12.9-4.8
		c-8.8,0-16.3,5.8-18.8,13.9v-2.2c0-7.8,2.8-14.9,7.5-20.4c5.8-6.9,14.5-11.2,24.2-11.2s18.4,4.4,24.2,11.2
		C230.4,46.2,233.2,53.3,233.2,61.1z"/>
	<path class="st2" d="M225.7,30.2v10.4c-5.8-6.9-14.5-11.2-24.2-11.2s-18.4,4.4-24.2,11.2V30.2c0-13.4,10.8-24.2,24.2-24.2
		S225.7,16.8,225.7,30.2z"/>
</g>
<g>
	<path class="st2" d="M183.5,326.8h-53.3c-58.4-8-78.6-53.7-78.6-53.7h45.9h26.7C124.1,273.1,139.4,318.8,183.5,326.8z"/>
	<path class="st2" d="M130.1,326.8H46.4c-7.4,0-14.1-3-19-7.9s-7.9-11.6-7.9-19c0-14.8,12-26.9,26.9-26.9h5.1
		C51.6,273.1,71.7,318.8,130.1,326.8z"/>
	<rect x="174.1" y="79.6" class="st2" width="54.9" height="153.4"/>
</g>
<path class="st3" d="M112.8,69.9c6.6,0,12.1,5.4,12.1,12S119.5,94,112.8,94c-4.1,0-71.5,0-76,0c-6.7,0-12-5.4-12-12.1s5.4-12,12-12
	c0.7,0,1.3,0.1,2,0.2c0-0.2,0-0.5,0-0.7c0-13.6,11-24.6,24.6-24.6c9.9,0,18.4,5.8,22.3,14.2c1.5-0.4,3.1-0.7,4.8-0.7
	c8.1,0,14.9,5.4,17.1,12.8C109.1,70.3,110.9,69.9,112.8,69.9z"/>
<g>
	<path class="st4" d="M398.1,348.2l-6.1-22.9c-0.7-2.6-3.1-4.5-5.8-4.5h-4.1c4.7-5.7,7.5-12.9,7.5-20.8c0-18.1-14.7-32.9-32.9-32.9
		h-45.5l-8.9-118.2c-1.2-15.5-11.5-28.4-26.3-32.9l-45.2-13.8c-1.8-0.6-3.8-0.2-5.3,0.9s-2.4,2.9-2.4,4.8v54.8l-15.4-7v-12.6
		c0-3.3-2.7-6-6-6s-6,2.7-6,6v12.6l-15.4,7V108c0-1.9-0.9-3.7-2.4-4.8s-3.5-1.5-5.3-0.9L127.1,116c-14.8,4.5-25.2,17.4-26.3,32.9
		l-8.9,118.2H46.4c-18.1,0-32.9,14.7-32.9,32.9c0,7.9,2.8,15.2,7.5,20.8h-4.1c-2.7,0-5.1,1.8-5.8,4.5L4,351.8l-4,14.7h402.5
		L398.1,348.2z M25.6,300c0-11.5,9.4-20.8,20.8-20.8h1.4c4.5,8.1,17.5,28.2,43.3,41.7H46.4C34.9,320.8,25.6,311.5,25.6,300z
		 M197.3,216.1c0.7,0.3,7.8,0.3,8.5,0c16.6-2.9,29.2-17.4,29.2-34.8v-65.2l37.5,11.4c10.1,3.1,17.1,11.8,17.9,22.3l8.8,117.3H272
		c0.1-8.7-3.3-15.5-7.2-20.3l14.8-6.7c3-1.4,4.4-4.9,3-8c-1.4-3-4.9-4.4-8-3l-5.1,2.3v-41.7c0-3.3-2.7-6-6-6s-6,2.7-6,6v47.2
		l-24.1,10.9H210h-40.2l-24.1-10.9v-47.2c0-3.3-2.7-6-6-6s-6,2.7-6,6v41.7l-5.1-2.3c-3-1.4-6.6,0-8,3s0,6.6,3,8l15.5,7
		c-3.8,4.8-7,11.5-6.9,20h-28.1l8.8-117.3c0.8-10.5,7.8-19.2,17.9-22.3l37.5-11.4v65.2C168.1,198.7,180.7,213.2,197.3,216.1z
		 M201.6,166.3L223,176v5.4c0,12.2-9.5,22.3-21.4,23.2c-12-0.9-21.4-11-21.4-23.2V176L201.6,166.3z M356.7,320.8H312
		c25.8-13.5,38.8-33.5,43.3-41.7h1.4c11.5,0,20.8,9.3,20.8,20.8C377.5,311.5,368.2,320.8,356.7,320.8z M272.5,320.8h-22.7
		c19.6-13.4,29.6-33.1,33.3-41.7h58.1C332.6,292,312,315.3,272.5,320.8z M184.1,320.8c-28.9-5.5-44.4-29.1-50.8-41.7h100.9l0,0l0,0
		h35.6c-6.3,12.6-21.8,36.2-50.8,41.7H184.1z M150.6,252.4l15.4,7c0.8,0.4,1.6,0.5,2.5,0.5H210c5.1,0,9.9,2.6,12.8,6.8l0.2,0.4
		h-78.9C143.9,259.5,147.9,254.7,150.6,252.4z M253.2,252.1c2.7,2.2,7,7.1,6.8,15h-22.5l-4.7-7c0-0.1-0.1-0.1-0.1-0.2h2
		c0.9,0,1.7-0.2,2.5-0.5L253.2,252.1z M120,279.1c3.6,8.5,13.6,28.3,33.3,41.7h-22.7c-39.4-5.5-60.1-28.9-68.7-41.7H120z
		 M381.6,332.9l5.8,21.6H15.8l5.8-21.6H381.6z"/>
	<path class="st4" d="M201.6,106c20.8,0,37.7-16.9,37.7-37.7v-7.2c0-8.4-2.8-16.2-7.5-22.5v-8.4c0-16.7-13.5-30.2-30.2-30.2
		s-30.2,13.5-30.2,30.2v8.4c-4.7,6.3-7.5,14.1-7.5,22.5v7.2C163.9,89.1,180.8,106,201.6,106z M201.6,35.4c7.7,0,14.6,3.4,19.3,8.8
		c-2.1-0.5-4.2-0.8-6.4-0.8c-4.6,0-9,1.2-12.9,3.5c-3.9-2.3-8.3-3.5-12.9-3.5c-2.2,0-4.4,0.3-6.4,0.8
		C186.9,38.9,193.8,35.4,201.6,35.4z M201.6,93.9c-14.1,0-25.7-11.5-25.7-25.7v-4c2-5.3,7-8.9,12.8-8.9c3.3,0,6.4,1.2,8.9,3.4
		c2.3,2,5.6,2,7.9,0c2.5-2.2,5.7-3.4,8.9-3.4c5.8,0,10.8,3.5,12.8,8.9v4C227.2,82.4,215.7,93.9,201.6,93.9z M201.6,12
		c9.3,0,16.9,7,18,16c-5.4-2.9-11.5-4.6-18-4.6s-12.7,1.7-18,4.6C184.6,19,192.3,12,201.6,12z"/>
	<path class="st4" d="M329.3,149.3h64.2c8.9,0,16.2-7.3,16.2-16.2c0-7.6-5.2-14-12.3-15.7C395,105,384.1,95.6,371,95.6
		c-8.8,0-17,4.4-22,11.5c-7.7-0.4-14.8,3.6-18.8,9.8c-0.3,0-0.7,0-1,0c-8.9,0-16.2,7.3-16.2,16.2C313.1,142,320.4,149.3,329.3,149.3
		z M329.3,128.9c0.6,0,1.2,0.1,1.8,0.4c1.6,0.8,3.4,0.8,5,0.1s2.8-2.1,3.3-3.8c1.4-4.6,6.2-7.5,11.1-6.2c2.8,0.8,5.8-0.6,7.1-3.2
		c2.4-5.2,7.7-8.6,13.4-8.6c8.2,0,14.8,6.6,14.8,14.8c0,0.2,0,0.3,0,0.5c-0.1,1.8,0.7,3.5,2,4.7c1.4,1.2,3.2,1.7,4.9,1.4
		c0.3,0,0.5-0.1,0.7-0.1c2.3,0,4.2,1.9,4.2,4.2s-1.9,4.2-4.2,4.2h-64.2c-2.3,0-4.2-1.9-4.2-4.2S327,128.9,329.3,128.9z"/>
	<path class="st4" d="M36.8,100h76c10,0,18.1-8.1,18.1-18.1s-8.1-18.1-18.1-18.1c-0.6,0-1.2,0-1.8,0.1c-4.5-7.5-13.1-12.3-22.1-11.6
		c-5.6-8.4-15.2-13.6-25.5-13.6c-15.2,0-27.8,11.1-30.2,25.5c-8.2,1.7-14.4,9-14.4,17.7C18.8,91.9,26.8,100,36.8,100z M36.8,75.9
		c0.3,0,0.6,0,1,0.1c1.8,0.3,3.6-0.2,4.9-1.4c1.4-1.2,2.1-2.9,2.1-4.7c0-0.2,0-0.4,0-0.5c0-10.3,8.3-18.6,18.6-18.6
		c7.2,0,13.8,4.2,16.9,10.8c1.2,2.7,4.2,4,7.1,3.3c6.4-1.8,12.8,2,14.5,8c0.5,1.7,1.7,3.1,3.3,3.8c1.6,0.7,3.5,0.7,5-0.1
		c0.8-0.4,1.7-0.6,2.6-0.6c3.3,0,6,2.7,6,6s-2.7,6-6,6h-76c-3.3,0-6-2.7-6-6S33.5,75.9,36.8,75.9z"/>
</g>
</svg>
