<?xml version="1.0" encoding="utf-8"?>
<!-- Generator: Adobe Illustrator 20.1.0, SVG Export Plug-In . SVG Version: 6.00 Build 0)  -->
<svg version="1.1" id="Layer_1" xmlns="http://www.w3.org/2000/svg" xmlns:xlink="http://www.w3.org/1999/xlink" x="0px" y="0px"
	 viewBox="0 0 512 512" style="enable-background:new 0 0 512 512;" xml:space="preserve">
<style type="text/css">
	.st0{fill:#E6E6E6;}
	.st1{fill:#C5AF6C;}
	.st2{fill:#413B03;}
	.st3{fill:#808080;}
	.st4{fill:#207CB9;}
	.st5{fill:#80C9FA;}
	.st6{fill:#FCCC8B;}
	.st7{fill:#737373;}
</style>
<polygon class="st0" points="503.1,106.4 503.1,243.7 482.2,243.7 482.2,243.6 33.5,243.6 33.5,243.7 16.6,243.7 16.6,113.1 
	16.6,113.1 "/>
<g>
	<path class="st1" d="M153.4,81.1c0,8.9-1.6,17.5-4.6,25.4c-10.3,27.3-36.6,46.8-67.5,46.8c-28.3,0-52.9-16.3-64.6-40.1
		c-4.8-9.6-7.5-20.5-7.5-32C9.1,41.2,41.4,9,81.3,9S153.4,41.2,153.4,81.1z"/>
	<rect x="33.5" y="243.6" class="st1" width="448.8" height="258.1"/>
</g>
<rect x="33.5" y="239.4" class="st2" width="448.8" height="31.3"/>
<rect x="347.3" y="302.8" class="st3" width="106.1" height="82.7"/>
<rect x="62.4" y="302.8" class="st4" width="106.1" height="82.7"/>
<polygon class="st5" points="168.5,302.8 168.5,385.5 113.7,385.5 132.3,302.8 "/>
<rect x="200.3" y="302.8" class="st0" width="115.1" height="198.9"/>
<polygon class="st6" points="81.3,40.4 94.8,62.8 120.3,68.7 103.1,88.5 105.4,114.6 81.3,104.4 57.1,114.6 59.4,88.5 42.2,68.7 
	67.7,62.8 "/>
<path class="st7" d="M503,98.1H160.6c1.1-5.3,1.7-10.8,1.7-16.3c0-21.7-8.4-42-23.8-57.4c-3.5-3.5-9.2-3.5-12.7,0
	c-3.5,3.5-3.5,9.2,0,12.8c11.9,11.9,18.5,27.8,18.5,44.6c0,7.6-1.3,15.1-4,22.2c-9.2,24.5-32.9,40.9-59.1,40.9
	c-24.2,0-45.8-13.5-56.6-35.1c-4.3-8.7-6.5-18.2-6.5-28c0-34.8,28.3-63.1,63.1-63.1c8.5,0,16.8,1.7,24.6,5c4.6,1.9,9.9-0.2,11.8-4.8
	s-0.2-9.9-4.8-11.8c-10-4.2-20.6-6.4-31.6-6.4C36.4,0.6,0,37,0,81.7c0,11.9,2.5,23.3,7.5,33.9v128.6c0,5,4,9,9,9h7.9v249.1
	c0,5,4,9,9,9h448.8c5,0,9-4,9-9v-44.1c0-5-4-9-9-9s-9,4-9,9v35.1H324.3V303.5c0-5-4-9-9-9H200.2c-5,0-9,4-9,9v189.9H42.4V253.3
	h430.7v176.1c0,5,4,9,9,9s9-4,9-9V253.3H503c5,0,9-4,9-9V107.1C512,102.1,508,98.1,503,98.1z M209.2,312.5h97.1v180.9h-97.1
	L209.2,312.5L209.2,312.5z M494,235.3H25.5v-94.4c14.8,14,34.5,22,55.6,22c31.5,0,60.3-18.6,73.5-46.8H494V235.3z"/>
<path class="st7" d="M229.2,210c15.2,0,27.5-12.3,27.5-27.5v-13.5c0-15.2-12.3-27.5-27.5-27.5c-15.2,0-27.5,12.3-27.5,27.5v13.5
	C201.7,197.6,214,210,229.2,210z M219.7,168.9c0-5.2,4.3-9.5,9.5-9.5s9.5,4.3,9.5,9.5v13.5c0,5.2-4.3,9.5-9.5,9.5s-9.5-4.3-9.5-9.5
	V168.9z"/>
<path class="st7" d="M390.7,210c11.1,0,21-6.6,25.4-16.8c1.9-4.6-0.2-9.9-4.8-11.8c-4.6-1.9-9.9,0.2-11.8,4.8
	c-1.5,3.5-4.9,5.8-8.8,5.8c-5.2,0-9.5-4.3-9.5-9.5v-13.5c0-5.2,4.3-9.5,9.5-9.5c3.2,0,6.1,1.6,7.9,4.2c2.8,4.1,8.4,5.2,12.5,2.4
	c4.1-2.8,5.2-8.4,2.4-12.5c-5.1-7.6-13.7-12.1-22.8-12.1c-15.2,0-27.5,12.3-27.5,27.5v13.5C363.2,197.6,375.5,210,390.7,210z"/>
<path class="st7" d="M280.5,210h21.7c5,0,9-4,9-9s-4-9-9-9h-12.6v-41.5c0-5-4-9-9-9s-9,4-9,9V201C271.5,205.9,275.5,210,280.5,210z"
	/>
<path class="st7" d="M333,210c5,0,9-4,9-9v-50.5c0-5-4-9-9-9s-9,4-9,9V201C324,205.9,328,210,333,210z"/>
<path class="st7" d="M439.2,210h21.7c5,0,9-4,9-9s-4-9-9-9h-12.6v-6.9h8.3c5,0,9-4,9-9s-4-9-9-9h-8.3v-7.6h12.6c5,0,9-4,9-9
	s-4-9-9-9h-21.7c-5,0-9,4-9,9V201C430.2,205.9,434.2,210,439.2,210z"/>
<path class="st7" d="M146.4,150.4V201c0,5,4,9,9,9s9-4,9-9v-14.1h3.6c12.5,0,22.7-10.2,22.7-22.7c0-12.5-10.2-22.7-22.7-22.7h-12.6
	C150.4,141.4,146.4,145.4,146.4,150.4z M164.4,159.4h3.6c2.6,0,4.7,2.1,4.7,4.7s-2.1,4.7-4.7,4.7h-3.6V159.4z"/>
<path class="st7" d="M347.1,294.5c-5,0-9,4-9,9v82.7c0,5,4,9,9,9h106.1c5,0,9-4,9-9v-82.7c0-5-4-9-9-9H347.1L347.1,294.5z
	 M444.2,335.8h-15.8v-23.3h15.8V335.8z M390,335.8v-23.3h20.4v23.3H390z M410.4,353.8v23.3H390v-23.3H410.4z M371.9,312.5v23.3
	h-15.8v-23.3H371.9z M356.1,353.8h15.8v23.3h-15.8V353.8z M428.4,377.1v-23.3h15.8v23.3L428.4,377.1L428.4,377.1z"/>
<path class="st7" d="M62.3,294.5c-5,0-9,4-9,9v82.7c0,5,4,9,9,9h106.1c5,0,9-4,9-9v-82.7c0-5-4-9-9-9H62.3L62.3,294.5z M159.3,377.1
	H71.3v-64.6h88.1L159.3,377.1L159.3,377.1z"/>
<path class="st7" d="M245.9,381.5h-16.2c-5,0-9,4-9,9s4,9,9,9h16.2c5,0,9-4,9-9S250.9,381.5,245.9,381.5z"/>
<path class="st7" d="M128.7,66.6c-1-3-3.5-5.3-6.5-6l-21.8-5.1L88.9,36.3c-1.6-2.7-4.6-4.4-7.7-4.4c-3.2,0-6.1,1.7-7.7,4.4
	L61.9,55.5l-21.8,5.1c-3.1,0.7-5.6,3-6.5,6c-1,3-0.3,6.3,1.8,8.7l14.7,16.9L48,114.5c-0.3,3.1,1.1,6.2,3.7,8.1
	c1.6,1.1,3.4,1.7,5.3,1.7c1.2,0,2.4-0.2,3.5-0.7l20.6-8.7l20.6,8.7c2.9,1.2,6.3,0.8,8.8-1c2.6-1.9,4-4.9,3.7-8.1l-1.9-22.3L127,75.3
	C129.1,72.9,129.7,69.6,128.7,66.6z M96.2,83.3c-1.6,1.8-2.4,4.2-2.2,6.7l1,11.2l-10.4-4.4c-1.1-0.5-2.3-0.7-3.5-0.7
	c-1.2,0-2.4,0.2-3.5,0.7l-10.4,4.4l1-11.2c0.2-2.4-0.6-4.8-2.2-6.7l-7.4-8.5l11-2.6c2.4-0.6,4.4-2,5.7-4.1l5.8-9.6l5.8,9.6
	c1.3,2.1,3.3,3.6,5.7,4.1l11,2.6L96.2,83.3z"/>
</svg>
