<?xml version="1.0" encoding="utf-8"?>
<!-- Generator: Adobe Illustrator 20.1.0, SVG Export Plug-In . SVG Version: 6.00 Build 0)  -->
<svg version="1.1" id="Layer_1" xmlns="http://www.w3.org/2000/svg" xmlns:xlink="http://www.w3.org/1999/xlink" x="0px" y="0px"
	 viewBox="0 0 512 511.5" style="enable-background:new 0 0 512 511.5;" xml:space="preserve">
<style type="text/css">
	.st0{fill:#FF4A51;}
	.st1{fill:#808080;}
	.st2{fill:#FFFFFF;}
	.st3{fill:#FCC062;}
	.st4{fill:#4D4D4D;}
	.st5{fill:#4D3636;}
</style>
<path class="st0" d="M176.4,71.9c17.6,0,32.2-14.3,32.2-31.9V7.8h94.9V40c0,17.6,14.6,31.9,32.3,31.9"/>
<rect x="184.1" y="71.9" class="st1" width="143.7" height="79.9"/>
<rect x="216.1" y="103.9" class="st2" width="79.9" height="47.9"/>
<rect x="152.2" y="151.8" class="st3" width="207.5" height="24"/>
<path class="st0" d="M463.6,288c-61.7,0-111.8-48.7-111.8-111.3H160.2c0,62.6-50.1,111.5-111.8,111.5"/>
<rect x="104.3" y="264.4" class="st3" width="303.4" height="22.9"/>
<g>
	<rect x="447.6" y="319.5" class="st0" width="31.9" height="63.9"/>
	<rect x="32.4" y="319.5" class="st0" width="31.9" height="63.9"/>
</g>
<rect x="128.2" y="287.5" class="st1" width="255.5" height="167.7"/>
<rect x="168.2" y="367.4" class="st0" width="175.7" height="87.8"/>
<rect x="96.3" y="287.5" class="st4" width="31.9" height="167.7"/>
<rect x="96.3" y="407.3" class="st0" width="31.9" height="47.9"/>
<rect x="383.8" y="287.5" class="st4" width="31.9" height="167.7"/>
<rect x="383.8" y="407.3" class="st0" width="31.9" height="47.9"/>
<rect x="80.3" y="455.2" class="st3" width="351.3" height="24.5"/>
<rect x="49" y="479.2" class="st0" width="414" height="24"/>
<rect y="495.8" class="st5" width="512" height="15.6"/>
<rect x="49" y="471.9" class="st5" width="414" height="15.6"/>
<polygon class="st5" points="352.5,439.5 336.8,439.5 336.8,374.9 175.2,374.9 175.2,439.5 159.5,439.5 159.5,359.2 352.5,359.2 "/>
<g>
	<rect x="159.5" y="336.3" class="st2" width="192.9" height="15.6"/>
	<rect x="208.6" y="311.3" class="st2" width="94.9" height="15.6"/>
	<rect x="224.2" y="407.2" class="st2" width="15.6" height="15.6"/>
	<rect x="272.2" y="407.2" class="st2" width="15.6" height="15.6"/>
</g>
<polygon class="st5" points="303.4,136.1 287.8,136.1 287.8,112.1 224.2,112.1 224.2,136.1 208.6,136.1 208.6,96.5 303.4,96.5 "/>
<path class="st5" d="M368.1,32.8v15.6h14.4c-3.4,9-12.4,15.6-22.7,15.6h-24v0c-13.6,0-24-10.8-24-24.1V0.5H200.2V40
	c0,13.3-10.4,24.1-24,24.1v0h-24c-10.3,0-19.3-6.6-22.7-15.6h14.4V32.8h-31.3v7.8c0,21.2,18,39.1,39.6,39.1h25.1v63.6h-25V159h207.5
	v-15.6h-25V79.8h25.1c21.6,0,39.6-17.9,39.6-39.1v-7.8C399.4,32.8,368.1,32.8,368.1,32.8z M215.9,40V16.2h80.3V40
	c0,9.1,3,17.4,8.1,24.1h-16.5V23.5h-15.6v40.7h-9.4V23.5h-15.6v40.7h-7.3V23.5h-15.6v40.7h-16.5C212.8,57.4,215.9,49.1,215.9,40z
	 M319.1,143.4h-56.3v-22.9h-15.6v22.9h-54.2V79.8h126.2L319.1,143.4L319.1,143.4z"/>
<path class="st5" d="M463.5,199.7h-7.8V231h15.6v-14.6c14.5,3.2,24.3,15.4,24.3,31.4c0,17.6-14.2,32-31.6,32.2v0
	c-28.2,0-54.2-10.7-73.7-30c-5.7-5.7-10.7-12-14.9-18.7V231h-0.1c-10.1-16.2-15.5-35-15.5-54.7v-7.8H152.2v7.8
	c0,19.7-5.4,38.5-15.5,54.7h-0.2v0.3c-4.2,6.7-9.2,13-14.9,18.7c-18.5,18.4-42.9,29-69.3,30h-3.9c-17.7,0-32.1-14.5-32.1-32.2
	c0-15.4,10.2-27.9,24.3-31.3V231h15.6v-31.3h-7.8c-26.8,0-47.8,21.1-47.8,48c0,26.3,21.2,47.7,47.3,48v0.1c1.5,0,40.7-0.1,40.7-0.1
	v151.2h-8.3v15.6h351.4v-15.6h-8.3V295.6h40.2c26.3,0,47.7-21.6,47.7-48C511.3,220.4,490.8,199.7,463.5,199.7z M132.7,261.1
	c1.3-1.3,2.6-2.7,3.9-4v14.6h15.6v-35.9c9-15.6,14.3-33.2,15.5-51.7h0.1v87.6h15.6V184h16.7v87.6h15.6V184h15.6v87.6h15.6V184h17.7
	v87.6h15.6V184h15.6v87.6h15.6V184h16.7v87.6h15.6V184h0.1c1.2,18.4,6.5,36,15.5,51.6v36h15.6V257c1.3,1.4,2.5,2.7,3.9,4
	c7.5,7.5,15.9,13.8,25,19H107.9C116.9,274.9,125.2,268.5,132.7,261.1z M104.3,415.5H121v31.3h-16.7V415.5z M391,446.8v-31.3h16.7
	v31.3H391z M407.7,399.9H391v-97h-15.6v143.9H262.8v-63.6h-15.6v63.6H136.6V302.9H121v97h-16.7V295.6h303.4L407.7,399.9L407.7,399.9
	z"/>
<path class="st5" d="M471.3,302.9h-15.6v8.7h-15.9v79.5h15.9v16h15.6v-16h16.1v-79.5h-16.1V302.9z M471.8,375.5h-16.3v-48.2h16.3
	V375.5z"/>
<path class="st5" d="M56.3,302.9H40.7v8.7H24.6v79.5h16.1v16h15.6v-16h15.9v-79.5H56.3V302.9z M56.5,375.5H40.2v-48.2h16.3
	L56.5,375.5L56.5,375.5z"/>
</svg>
