<?xml version="1.0" encoding="utf-8"?>
<!-- Generator: Adobe Illustrator 20.1.0, SVG Export Plug-In . SVG Version: 6.00 Build 0)  -->
<svg version="1.1" id="Layer_1" xmlns="http://www.w3.org/2000/svg" xmlns:xlink="http://www.w3.org/1999/xlink" x="0px" y="0px"
	 viewBox="0 0 448 338.8" style="enable-background:new 0 0 448 338.8;" xml:space="preserve">
<style type="text/css">
	.st0{fill:#72788C;}
	.st1{fill:#C1706D;}
	.st2{fill:#FCDD55;}
	.st3{fill:#9BE46C;}
	.st4{fill:#E1E1E6;}
	.st5{fill:#DFB0F3;}
	.st6{fill:#C25B56;}
	.st7{fill:#B4B4B8;}
	.st8{fill:#D496EF;}
	.st9{fill:#BDC3C7;}
</style>
<g transform="translate(0 -1020.36)" image-rendering="auto" shape-rendering="auto" color-rendering="auto" color-interpolation="sRGB">
	<path class="st0" d="M222,1020.3c-15.3,0.2-30.5,2.1-45.3,5.8c-38.4,9.4-74,30.4-101.4,61.4c-0.8-0.3-1.7-0.4-2.6-0.4l0,0
		c-6.9,0.2-13.8,1.5-20.6,3.8c-35.5,12.1-57.2,47.5-51.2,83.8c5.6,34.3,34.1,60.6,68.9,64.2c3.6,0.4,4,0.2,6,0.2h87.7
		c0.1,0,0.2,0,0.4,0c24.9-1.2,46.9-16.1,55.9-38.5c6-14.9,5.2-31.3-1.2-45.4c20.7-1.8,41.2,6.6,54.7,22.9c15.4,18.5,19,43.9,9.6,66
		c-14.5-0.9-28.7,1.8-39.8,12.1c-18,16.6-24,42.1-15,64.5c9,22.4,31.1,37.3,56,38.5c0.1,0,0.2,0,0.4,0c31.4,0,63.4,0,94.6,0
		c34.7-3.6,62.5-30,68.1-64.3c4.2-25.8-5.7-50.9-24.4-67.7c3.3-83.9-46.5-161.1-124.6-192.5C273.4,1024.7,247.6,1020.1,222,1020.3
		L222,1020.3z"/>
	<path class="st1" d="M222.1,1036.3c23.5-0.2,47.3,4.1,70,13.2c68.5,27.5,113.3,93.3,114.6,166.4c-3.5-1.9-7.2-3.6-11.1-4.9
		c-0.8-0.3-1.7-0.4-2.5-0.7c-3.3-65.9-45.1-123.9-107.1-147.9c-31.1-12.1-64.3-14.6-95.7-8.2c-30.8,6.3-59.8,21.2-83.3,43.7
		c-4.9-2-10-3.5-15.3-4.7C126.4,1056.8,173.6,1036.8,222.1,1036.3L222.1,1036.3z"/>
	<path class="st2" d="M215.1,1067c21.8-1.3,44,2,65.2,10.2c54.9,21.4,92.5,73,96.9,131.1c-5.4,1.3-9.7,1.7-13.4,2.9
		c-2.5-53.3-35.4-99.8-85.1-120.6c-25.4-10.6-52.7-13.3-78.8-8.7c-24.7,4.4-48,15.5-67.5,32.6c-3.2-3.2-6.7-6-10.5-8.6
		C148,1082.5,181,1069.1,215.1,1067L215.1,1067z"/>
	<path class="st3" d="M220.1,1095.9c17.6-0.6,35.5,2.5,52.3,9.6c44.9,18.8,74.5,61.8,75.7,110c-5,1.6-9.8,3.6-14.4,6
		c0.8-36.9-16.8-72.1-47.7-93.2c-16.9-11.5-36.4-17.8-56.1-18.9c-19.7-1.1-39.7,3.2-57.8,12.9c-0.8,0.4-1.6,0.9-2.2,1.5
		c-8.3,0-16.9,1.4-25,3.6c-0.8,0-1.6-0.2-2.2-0.2c-0.1-0.2-0.2-0.2-0.3-0.4C164.4,1107.5,191.9,1096.8,220.1,1095.9L220.1,1095.9z"
		/>
	<path class="st4" d="M72.5,1103.2c0.1,0,0.2,0,0.2,0c0.2,0,0.4,0,0.6,0c11.1-0.4,22.2,2.7,32.2,8.2c0.7,0.6,1.6,1.1,2.5,1.5
		c9.8,5.9,18.3,14.2,24.1,24.2c0.4,0.7,0.8,1.4,1.4,1.9c3,3.1,6,3.4,9.4,2.5c18.2-6.9,38.2-5.3,51.1,6.6
		c13.3,12.3,17.6,30.5,11,46.8c-6.6,16.3-23,27.7-41.9,28.6H77.6c-0.4-0.2-0.9-0.2-1.3-0.2c-30-0.9-54.8-22.4-59.4-50.9
		c-4.7-28.7,12.2-56.4,40.6-66.1c5-1.7,10.1-2.6,15.1-2.8L72.5,1103.2z"/>
	<path class="st5" d="M229.1,1125.3c16.8,0.9,33.4,6.3,47.9,16.2c28.9,19.7,44.4,53.9,40.3,88.6c-0.1,0.9-0.1,1.7,0.1,2.6
		c-4.6,4.2-8.7,9-12.3,14.4c-0.6-0.2-1.2,0.4-1.9,0.2l-0.1,0.2c-1.3-0.4-2.7-0.5-4.1-0.8c9.9-26.7,5-56.8-13.3-78.8
		c-18.6-22.4-48-32.7-76.6-27.2c-1.4-1.5-2.7-3.1-4.2-4.5c-2.8-2.6-5.9-4.6-9.1-6.3C206.7,1126.3,217.9,1124.7,229.1,1125.3
		L229.1,1125.3z"/>
	<path class="st4" d="M374.8,1223.2h-0.1c5.3,0.2,10.6,1,15.8,2.8c28.4,9.7,45.4,37.5,40.7,66.2c-4.6,28.5-29.4,50-59.4,50.9
		c-0.5,0-1,0-1.5,0.2h-85.5c-18.9-0.9-35.3-12.3-41.8-28.6c-6.6-16.3-2.3-34.4,11-46.8c12.9-12,33-13.4,51.1-6.6
		c6.1,1.9,8.3-0.6,10.7-4.3C328,1236.2,351.6,1222.4,374.8,1223.2L374.8,1223.2z"/>
	<path class="st6" d="M222.1,1036.3c-48.5,0.5-95.7,20.5-130.3,56.9c5.2,1.1,10.4,2.6,15.3,4.7c0.4-0.4,0.8-0.7,1.2-1.1
		c-3.8-1.4-7.7-2.7-11.7-3.6c34.2-36,80.6-55.8,128.5-56.8C224.1,1036.4,223.1,1036.3,222.1,1036.3L222.1,1036.3z M231,1050.8
		c-1.1,0-2.1,0-3.2,0c19.6,0.4,39.3,4.1,58.2,11.5c61.9,24.1,103.8,82,107.1,147.9c0.8,0.2,1.7,0.4,2.5,0.7c3.9,1.3,7.5,3,11.1,4.9
		c0-0.7-0.2-1.4-0.2-2.2c-2-0.9-4-2-6.2-2.8c-0.8-0.3-1.7-0.4-2.5-0.7c-3.3-65.9-45.1-123.9-107.1-147.9
		C271.4,1054.7,251.1,1051,231,1050.8L231,1050.8z"/>
	<path class="st7" d="M72.5,1103.2h0.2c-5.1,0.2-10.2,1.1-15.1,2.8c-28.4,9.7-45.3,37.5-40.6,66.1c4.6,28.5,29.4,50,59.4,50.9
		c0.4,0,0.9,0.1,1.3,0.2h7.8c-0.4-0.1-0.9-0.1-1.3-0.2c-30-0.9-54.8-22.4-59.4-50.9c-4.7-28.7,12.2-56.4,40.6-66.1
		c4.5-1.5,9.1-2.3,13.7-2.7c-1.9-0.2-3.7-0.3-5.6-0.2c-0.2,0-0.4,0-0.6,0C72.8,1103.2,72.6,1103.1,72.5,1103.2L72.5,1103.2z
		 M163.8,1137.2c-6.5,0.2-13.1,1.4-19.5,3.7c0.1,0.1,0.2,0.1,0.3,0.2c0.1,0.1,0.2,0.2,0.4,0.2c0.1,0.1,0.2,0.1,0.4,0.2
		c0.1,0.1,0.2,0.1,0.4,0.2c0.2,0.1,0.3,0.1,0.5,0.2c0.1,0,0.2,0,0.4,0c0.1,0.1,0.2,0.1,0.4,0.2c0.1,0,0.2,0,0.4,0c0.2,0,0.3,0,0.5,0
		c0.1,0,0.2,0,0.2,0c0.2,0,0.5,0,0.7,0c0.7-0.1,1.4-0.2,2.1-0.5c5.8-2.2,11.8-3.4,17.7-3.8c-1.6-0.2-3.1-0.3-4.7-0.2L163.8,1137.2z"
		/>
	<path class="st8" d="M220.7,1125.2c-8.4,0.4-16.7,1.9-24.9,4.5c3.2,1.7,6.3,3.7,9.1,6.3c1.5,1.4,2.8,3,4.2,4.5
		c1.4-0.2,2.9-0.4,4.3-0.5c-1.2-1.4-2.3-2.8-3.7-4c-2.8-2.6-5.9-4.6-9.1-6.3c8-2.5,16.2-4.1,24.5-4.5
		C223.6,1125.2,222.2,1125.1,220.7,1125.2L220.7,1125.2z M224.6,1139.3c-0.2,0-0.2,0-0.4,0c23.5,0,46.1,10,61.5,28.5
		c18.3,22.1,23.2,52.2,13.3,78.8c1.3,0.3,2.7,0.4,4.1,0.8l0.2-0.2c0.7,0.2,1.2-0.4,1.9-0.2c0,0,0,0,0.2-0.2c-0.5,0-0.9-0.2-1.4-0.3
		c9.9-26.7,5-56.8-13.3-78.8c-16.3-19.6-40.8-29.9-65.8-28.6L224.6,1139.3z"/>
	<path class="st9" d="M376.1,1223.8c-2.7-0.2-5.5,0-8.2,0.3c4.4,0.4,8.7,1.1,13,2.5c28.4,9.7,45.4,37.5,40.8,66.2
		c-4.4,26.8-26.6,47.1-54.1,50.3h2.7c0.5-0.2,1-0.2,1.5-0.2c15-0.5,28.6-6.1,39.2-15.1c0,0,0,0,0,0c10.5-9,17.9-21.5,20.2-35.8
		c4-24.8-8.2-48.9-29.9-61.2c-3-1.6-6.1-3-9.4-4.2C386.6,1224.9,381.4,1224.1,376.1,1223.8L376.1,1223.8z M290.5,1258
		c-4-0.4-7.8-0.2-11.2,0.3c5.4,0.5,10.9,1.7,16.2,3.7c3.2,1.5,5.7,0,7.4-0.7c-2.1-0.9-4.1-1.6-6.2-2.2
		C294.6,1258.5,292.5,1258.2,290.5,1258z M279.3,1258.2c-0.1,0-0.1,0-0.2,0v0C279.1,1258.2,279.2,1258.2,279.3,1258.2z"/>
</g>
</svg>
