<?xml version="1.0" encoding="utf-8"?>
<!-- Generator: Adobe Illustrator 20.1.0, SVG Export Plug-In . SVG Version: 6.00 Build 0)  -->
<svg version="1.1" id="Layer_1" xmlns="http://www.w3.org/2000/svg" xmlns:xlink="http://www.w3.org/1999/xlink" x="0px" y="0px"
	 viewBox="0 0 409.7 369.4" style="enable-background:new 0 0 409.7 369.4;" xml:space="preserve">
<style type="text/css">
	.st0{fill:#4F4F27;}
	.st1{fill:#70D3FB;}
	.st2{fill:#B4E283;}
	.st3{fill:#4BC144;}
	.st4{fill:#FEFEFE;}
	.st5{fill:#E26A6A;}
</style>
<g>
	<path class="st0" d="M0,56.7c1.3-0.4,1.1-1.7,1.4-2.6c3.5-11,10.8-18.1,21.9-21.2c2.2-0.6,3.3-1.7,4.2-3.6
		C40.7,1.9,72-7.9,98.4,6.9c8.2,4.6,14.5,11.2,18.9,19.5c1.1,2.2,2.6,3.3,5,4c13.8,4.1,23.7,17.3,23.9,31.5c0.1,5.2-3.2,8.9-8.5,9.1
		c-5.2,0.2-10.4,0.1-15.6,0.1c-36.7,0-73.3-0.1-110,0.1c-5.2,0-9.4-1.1-12.1-5.8C0,62.5,0,59.6,0,56.7z M126.8,54
		c-2.5-4.4-6-7.3-10.5-7.7c-6.9-0.6-10.4-4.1-13-10.4c-4.9-12.1-18.1-19.8-31.4-19.3C58.4,17.3,45.7,26,41.8,38.5
		c-2.1,6.6-5.5,10.1-12.7,10.2c-3.7,0-6.8,2-9.1,5.5C27.8,54.7,123,54.5,126.8,54z"/>
	<path class="st0" d="M0,360.7c3-7,4.5-8,12.6-8c6.1,0,12.3-0.1,18.4,0c5.9,0.1,9.8,3.4,9.8,8.3c0,4.9-3.8,8.3-9.7,8.4
		c-6.1,0.1-12.3-0.2-18.4,0.1c-6.3,0.3-10.7-1.7-12.6-8C0,361.2,0,360.9,0,360.7z"/>
	<path class="st0" d="M200.1,369.4c-45.2,0-90.4,0-135.6,0c-1.3,0-2.7,0.1-4-0.1c-4.9-0.6-7.9-4-7.9-8.5c0.1-4.4,3.3-7.9,8.2-8.1
		c5.2-0.2,10.4-0.1,15.6-0.1c18.1,0,36.3-0.1,54.4,0.1c2.8,0,3.8-0.4,3.8-3.6c-0.2-17.3-0.1-34.7,0-52c0-2.6-0.6-3.5-3.3-3.9
		c-35.1-5.7-60.5-29.7-68.5-64.4c-8.7-37.7,14.2-79.5,50.6-92.9c13.9-5.1,28.1-6.9,42.8-4.3c2,0.4,2.9-0.4,3.8-1.9
		c10.1-16.3,23.8-28.6,41.2-36.6c2.8-1.3,2.5-3.6,2.6-5.6c1-13.3,4.8-25.9,11.4-37.5c15.6-27.2,38.8-44.3,70-48.2
		c42-5.3,74.4,11.2,96.3,47.3c11.7,19.4,14.7,40.8,11,63.2c-1.3,7.6-3.5,15-6.7,22c-0.9,2-0.6,3.2,0.9,4.8
		c28.5,30.2,30.9,72.8,5.5,105.2c-15.9,20.3-37.4,30.1-63.3,30.2c-11.7,0.1-23.5,0.1-35.2,0c-2.5,0-3.4,0.5-3.4,3.3
		c0.1,24,0.1,48,0,72c0,2.9,1.1,3.1,3.4,3.1c14.5-0.1,29.1,0,43.6,0c1.7,0,3.5,0,5.1,0.6c3.5,1.3,5.4,3.9,5.5,7.6
		c0.1,3.8-1.9,6.6-5.6,7.9c-1.9,0.7-3.9,0.6-5.9,0.6C291,369.4,245.5,369.4,200.1,369.4z M290.4,181.7c0.3,0.2,0.7,0.4,1,0.6
		c1.6-1.8,3.1-3.6,4.8-5.3c3.9-4,7.8-8,11.9-11.9c3.5-3.2,7.9-3.4,11.3-0.7c2.9,2.3,3.9,6.4,2.3,9.7c-0.8,1.7-2.1,3.1-3.4,4.4
		c-8.6,8.6-17.1,17.2-25.8,25.7c-1.5,1.5-2.2,3-2.2,5.2c0.1,14.8,0.2,29.6,0,44.4c0,3.3,1.1,3.9,4.1,3.9c9.5-0.2,18.9-0.1,28.4-0.1
		c6.7,0,13.4,0.3,19.9-1.2c24.1-5.8,40.7-20.3,47.5-44.2c7.1-24.8,0.5-46.6-18.4-64.3c-6.9-6.4-7.4-8-3.1-16.5
		c7.6-15.3,10-31.3,7.5-48.1c-6.2-41.9-46.8-71.6-88.8-65.2C249,24,220.9,55.5,220.2,94c-0.1,7-2.9,10.6-9.2,13
		c-13.8,5.3-24.6,14.6-33.5,26.3c-2.2,2.9-2,3.9,1.4,5.5c38.7,18.3,56.5,65.8,39.6,105.1c-1.3,3-5.1,6.4-3.3,9.1
		c1.6,2.4,6.2,2.4,9.6,3.1c15.6,3,31.4,1.1,47.1,1.6c0.7,0,1.3-0.1,1.6-0.8c1.2-2.5-0.5-12.2-2.5-14.2c-9-9.1-18.1-18.1-27.1-27.2
		c-4.6-4.6-5.1-9.2-1.4-13c3.7-3.8,8.6-3.4,13.3,1.3c3.7,3.6,7.4,7.3,11,11c2.1,2.1,4.2,4.2,6.8,6.8c0-17.2,0-33.3,0-49.4
		c0-1.8-0.7-3-1.9-4.1c-5.6-5.5-11.2-11-16.6-16.7c-2.1-2.2-3.8-2.8-6.9-1.6c-12.7,4.7-27.2-1.8-33-14.4c-5.5-12-0.7-27.2,10.7-33.8
		c10.2-5.9,22.1-5,31,2.3c8.9,7.4,11.9,18.8,8,30c-0.4,1-1.5,2.2-0.4,3.3c2.8,2.9,5.6,5.7,9.1,9.2c0-12.7,0-24.1,0-35.6
		c0-1.7-0.1-3.5,0.5-5.1c1.3-3.7,3.9-5.7,7.8-5.7c3.9,0,6.5,2,7.8,5.7c0.6,1.7,0.6,3.4,0.6,5.1c0,13.7,0,27.5,0,41.2
		C290.4,161.8,290.4,171.8,290.4,181.7z M151.2,222.2c1.5-1.4,2.5-2.3,3.4-3.2c4.8-4.8,9.6-9.7,14.5-14.4c2.9-2.8,6.3-3.4,9.9-1.5
		c3.5,1.8,4.7,4.9,4.2,8.7c-0.3,2.4-1.9,4.1-3.5,5.7c-8.8,8.8-17.5,17.5-26.3,26.3c-1.3,1.2-2.2,2.4-2.2,4.4
		c0.1,8.5,0.1,17.1,0,25.6c0,2.3,0.5,3,3,2.6c35.4-5.7,60.1-41.6,52.7-76.9c-7-33.9-38.3-56.2-72.7-51.7
		c-34.6,4.5-59.7,36.1-56,70.7c3.1,29.2,23.8,51.9,52.3,57.7c3.4,0.7,4.1,0,4.1-3.3c-0.1-17.7-0.1-35.5-0.1-53.2
		c0-6.7-0.1-13.3,0-20c0.1-5.6,3-9.2,7.6-9.6c5.4-0.4,9,2.9,9.1,8.7C151.3,206.4,151.2,213.9,151.2,222.2z M242.8,351.6
		c0.3,0.3,0.5,0.7,0.8,1c9.1,0,18.1-0.1,27.2,0.1c2.2,0,2.9-0.5,2.9-2.8c-0.1-24.1-0.1-48.2,0-72.4c0-2.9-1.1-3.2-3.5-3.1
		c-8.8,0.1-17.6,0-26.4,0.1c-12.8,0.1-25.2-1.6-37.1-6.5c-2.2-0.9-3.5-0.5-5.1,1.2c-13,13.5-28.9,21.5-47.4,24.2
		c-2.4,0.3-3,1.1-3,3.4c0.1,17.6,0.1,35.2,0,52.8c0,2.7,0.8,3.3,3.3,3.3c14.7-0.1,29.3,0,44-0.1c1,0,2.1,0.5,3.1-0.8
		c-3.6-3.5-7.4-6.9-10.8-10.6c-4.4-4.7-3.3-11.2,2-13.7c3.3-1.6,7.1-0.7,10.5,2.6c3.4,3.3,6.7,6.6,10,9.9c1-5.8,0.6-11.3,1.1-16.7
		c0.5-5.4,5.8-8.5,10.8-6.6c3.8,1.4,5.4,4.5,5.4,8.5c0,4.9,0,9.7,0,15.8c4-4,7.1-7.2,10.3-10.4c1.5-1.5,3.1-3,5.2-3.5
		c3.7-0.8,6.9,0,9,3.4c2.2,3.3,2.1,7-0.9,10.2C250.7,344.6,246.7,348,242.8,351.6z M239.7,134.4c5.9,0,10.4-4.5,10.3-10.4
		c0-5.1-5-9.8-10.3-9.7c-5.4,0-10.2,4.9-10.1,10.3C229.8,129.8,234.5,134.4,239.7,134.4z"/>
	<path class="st0" d="M384.4,369.4c-4.8,0-9.6,0-14.4,0c-6.3-0.1-10.1-3.2-10.1-8.3c-0.1-5.1,3.7-8.4,9.9-8.5c9.8,0,19.7-0.1,29.5,0
		c6,0,9.7,3.3,9.7,8.3c0.1,5.1-3.7,8.4-9.9,8.5C394.3,369.5,389.3,369.4,384.4,369.4z"/>
	<path class="st1" d="M126.8,54c-3.8,0.5-99,0.6-106.8,0.2c2.3-3.6,5.4-5.5,9.1-5.5c7.1,0,10.6-3.6,12.7-10.2
		C45.7,26,58.4,17.3,71.9,16.7c13.3-0.5,26.5,7.2,31.4,19.3c2.6,6.3,6.1,9.7,13,10.4C120.8,46.7,124.3,49.6,126.8,54z"/>
	<path class="st2" d="M290.4,181.7c0-10,0-19.9,0-29.9c0-13.7,0-27.5,0-41.2c0-1.7,0-3.5-0.6-5.1c-1.3-3.7-3.9-5.7-7.8-5.7
		c-3.9,0-6.5,2-7.8,5.7c-0.6,1.7-0.5,3.4-0.5,5.1c0,11.5,0,22.9,0,35.6c-3.5-3.5-6.3-6.3-9.1-9.2c-1.1-1.1,0.1-2.3,0.4-3.3
		c3.9-11.2,0.9-22.6-8-30c-8.8-7.4-20.8-8.2-31-2.3c-11.4,6.6-16.2,21.8-10.7,33.8c5.8,12.7,20.3,19.2,33,14.4
		c3-1.1,4.7-0.6,6.9,1.6c5.4,5.7,11.1,11.2,16.6,16.7c1.2,1.2,1.9,2.3,1.9,4.1c-0.1,16.1,0,32.3,0,49.4c-2.7-2.6-4.7-4.7-6.8-6.8
		c-3.7-3.7-7.3-7.4-11-11c-4.7-4.7-9.6-5.1-13.3-1.3c-3.6,3.8-3.2,8.4,1.4,13c9,9.1,18.1,18.1,27.1,27.2c2.1,2.1,3.7,11.7,2.5,14.2
		c-0.4,0.7-0.9,0.9-1.6,0.8c-15.7-0.5-31.5,1.4-47.1-1.6c-3.4-0.7-8-0.7-9.6-3.1c-1.8-2.7,2-6,3.3-9.1
		c16.9-39.3-0.9-86.8-39.6-105.1c-3.4-1.6-3.6-2.6-1.4-5.5c8.9-11.7,19.7-21,33.5-26.3c6.3-2.4,9.1-6,9.2-13
		c0.7-38.5,28.8-70,67.1-75.9c42.1-6.5,82.6,23.3,88.8,65.2c2.5,16.8,0.1,32.9-7.5,48.1c-4.2,8.5-3.7,10.1,3.1,16.5
		c18.9,17.7,25.5,39.5,18.4,64.3c-6.8,23.9-23.5,38.4-47.5,44.2c-6.5,1.6-13.2,1.3-19.9,1.2c-9.5,0-18.9-0.1-28.4,0.1
		c-3,0.1-4.1-0.5-4.1-3.9c0.2-14.8,0.1-29.6,0-44.4c0-2.2,0.7-3.7,2.2-5.2c8.6-8.5,17.2-17.1,25.8-25.7c1.3-1.3,2.6-2.7,3.4-4.4
		c1.6-3.4,0.6-7.4-2.3-9.7c-3.3-2.7-7.8-2.5-11.3,0.7c-4.1,3.8-8,7.9-11.9,11.9c-1.7,1.7-3.2,3.5-4.8,5.3
		C291.1,182.1,290.7,181.9,290.4,181.7z M327.7,49.3c-14.8-0.1-26.8,11.7-27,26.4c-0.2,14.9,11.8,27.1,26.6,27.3
		c14.7,0.2,27.1-12.2,27-26.9C354.4,61.4,342.4,49.4,327.7,49.3z M373.9,206.6c-0.5-14.6-12.9-26.2-27.7-25.5
		c-16.8,0.8-26.6,14.5-25.8,27.9c1,15.3,13.6,26.8,27.5,25.8C363.5,233.6,375.1,221,373.9,206.6z"/>
	<path class="st3" d="M151.2,222.2c0-8.3,0.1-15.8,0-23.3c-0.1-5.7-3.7-9.1-9.1-8.7c-4.6,0.3-7.5,3.9-7.6,9.6c-0.1,6.7,0,13.3,0,20
		c0,17.7-0.1,35.5,0.1,53.2c0,3.3-0.7,4-4.1,3.3c-28.5-5.8-49.2-28.5-52.3-57.7c-3.6-34.6,21.4-66.2,56-70.7
		c34.3-4.5,65.6,17.8,72.7,51.7c7.3,35.3-17.3,71.3-52.7,76.9c-2.5,0.4-3-0.4-3-2.6c0.1-8.5,0.1-17.1,0-25.6c0-2,0.9-3.2,2.2-4.4
		c8.8-8.7,17.5-17.5,26.3-26.3c1.6-1.6,3.2-3.2,3.5-5.7c0.5-3.8-0.7-6.9-4.2-8.7c-3.6-1.8-7-1.3-9.9,1.5c-4.9,4.7-9.6,9.6-14.5,14.4
		C153.7,219.9,152.8,220.8,151.2,222.2z"/>
	<path class="st4" d="M242.8,351.6c3.8-3.6,7.9-7.1,11.5-10.9c3-3.2,3.1-6.9,0.9-10.2c-2.2-3.3-5.4-4.2-9-3.4
		c-2.2,0.5-3.7,2-5.2,3.5c-3.2,3.2-6.3,6.4-10.3,10.4c0-6.1,0-10.9,0-15.8c0-4-1.7-7-5.4-8.5c-5-1.9-10.4,1.2-10.8,6.6
		c-0.5,5.4-0.1,10.9-1.1,16.7c-3.3-3.3-6.6-6.7-10-9.9c-3.4-3.3-7.2-4.2-10.5-2.6c-5.3,2.5-6.4,9-2,13.7c3.4,3.7,7.2,7.1,10.8,10.6
		c-1,1.3-2.2,0.7-3.1,0.8c-14.7,0-29.3,0-44,0.1c-2.6,0-3.3-0.6-3.3-3.3c0.1-17.6,0.1-35.2,0-52.8c0-2.3,0.6-3.1,3-3.4
		c18.5-2.7,34.4-10.6,47.4-24.2c1.6-1.7,2.9-2.1,5.1-1.2c11.9,4.9,24.3,6.7,37.1,6.5c8.8-0.1,17.6,0.1,26.4-0.1
		c2.4,0,3.5,0.3,3.5,3.1c-0.1,24.1-0.1,48.2,0,72.4c0,2.3-0.7,2.9-2.9,2.8c-9.1-0.1-18.1-0.1-27.2-0.1
		C243.3,352.3,243.1,352,242.8,351.6z"/>
	<path class="st5" d="M239.7,134.4c-5.2,0-10-4.6-10.1-9.9c-0.1-5.4,4.7-10.2,10.1-10.3c5.2,0,10.2,4.7,10.3,9.7
		C250.1,129.9,245.7,134.4,239.7,134.4z"/>
	<path class="st0" d="M327.7,49.3c14.7,0.1,26.7,12.1,26.7,26.8c0,14.7-12.4,27.1-27,26.9c-14.9-0.2-26.8-12.4-26.6-27.3
		C300.9,61,312.9,49.3,327.7,49.3z M317.5,76c-0.1,5.6,4.5,10.3,10,10.3c5.4,0,10.1-4.7,10.1-10.2c0-5.4-4.4-9.9-9.9-10
		C322.1,66,317.5,70.4,317.5,76z"/>
	<path class="st0" d="M373.9,206.6c1.2,14.5-10.4,27-26,28.1c-13.9,1-26.6-10.4-27.5-25.8c-0.9-13.4,9-27,25.8-27.9
		C361,180.4,373.4,192,373.9,206.6z M357.4,207.7c-0.1-5.2-5.3-10.2-10.4-10.1c-5.2,0.1-10.2,5.3-10.1,10.4
		c0.1,5.2,5.3,10.3,10.4,10.1C352.6,217.9,357.5,212.8,357.4,207.7z"/>
	<path class="st5" d="M317.5,76c0.1-5.6,4.6-10,10.3-9.9c5.4,0.1,9.8,4.6,9.9,10c0,5.5-4.7,10.2-10.1,10.2
		C322,86.2,317.4,81.6,317.5,76z"/>
	<path class="st5" d="M357.4,207.7c0.1,5.1-4.8,10.2-10.1,10.4c-5.1,0.2-10.3-4.9-10.4-10.1c-0.1-5.1,4.9-10.3,10.1-10.4
		C352.1,197.5,357.3,202.5,357.4,207.7z"/>
</g>
</svg>
