<?xml version="1.0" encoding="utf-8"?>
<!-- Generator: Adobe Illustrator 20.1.0, SVG Export Plug-In . SVG Version: 6.00 Build 0)  -->
<svg version="1.1" id="Layer_1" xmlns="http://www.w3.org/2000/svg" xmlns:xlink="http://www.w3.org/1999/xlink" x="0px" y="0px"
	 viewBox="0 0 528 525" style="enable-background:new 0 0 528 525;" xml:space="preserve">
<style type="text/css">
	.st0{fill:#F15D9B;}
	.st1{fill:#9B0505;}
	.st2{fill:#F585B4;}
</style>
<g>
	<g>
		<g>
			<g>
				<path class="st0" d="M318.3,262H83.7c-3.3,0-6.5,1.6-8.5,4.3l-64,85.3c-0.2,0.2-0.1,0.5-0.3,0.7c-0.7,1.2-1.3,2.5-1.5,3.9
					c-0.1,0.4-0.2,0.8-0.2,1.2c0,0.2-0.1,0.4-0.1,0.6v149.3c0,5.9,4.8,10.7,10.7,10.7h298.7c5.9,0,10.7-4.8,10.7-10.7V272.7
					C329,266.8,324.2,262,318.3,262z M137,464.7c0,5.9-4.8,10.7-10.7,10.7h-64c-5.9,0-10.7-4.8-10.7-10.7v-32
					c0-23.5,19.1-42.7,42.7-42.7s42.7,19.1,42.7,42.7V464.7z M286.3,464.7c0,5.9-4.8,10.7-10.7,10.7h-64c-5.9,0-10.7-4.8-10.7-10.7
					v-32c0-23.5,19.1-42.7,42.7-42.7s42.7,19.1,42.7,42.7V464.7z"/>
				<path class="st1" d="M318.5,524H19.8c-9.2,0-16.7-7.5-16.7-16.7V358c0-0.5,0.1-1,0.1-1.3c0.1-0.7,0.2-1.2,0.3-1.7
					c0.3-1.7,0.9-3.4,1.9-5.3c0.3-0.7,0.6-1.3,1.1-1.9l63.9-85.2c3.1-4.2,8.1-6.7,13.3-6.7h234.6c9.2,0,16.6,7.2,16.9,16.5l0,0.2
					v234.6C335.2,516.5,327.7,524,318.5,524z M15.1,358.6v148.7c0,2.6,2.1,4.7,4.7,4.7h298.7c2.6,0,4.7-2.1,4.7-4.7V272.8
					c-0.1-2.7-2.3-4.8-4.9-4.8H83.7c-1.4,0-2.8,0.7-3.7,1.9l-63.5,84.7c-0.2,0.4-0.3,0.7-0.6,1c-0.4,0.6-0.6,1.1-0.6,1.5l-0.1,0.6
					c0,0,0,0.1,0,0.1C15.2,358.1,15.1,358.3,15.1,358.6z M15.2,357.4C15.2,357.4,15.2,357.4,15.2,357.4
					C15.2,357.4,15.2,357.4,15.2,357.4z M3.2,357.4C3.2,357.4,3.2,357.4,3.2,357.4C3.2,357.4,3.2,357.4,3.2,357.4z M275.6,481.4h-64
					c-9.2,0-16.7-7.5-16.7-16.7v-32c0-26.9,21.8-48.7,48.7-48.7c26.9,0,48.7,21.8,48.7,48.7v32C292.3,473.9,284.8,481.4,275.6,481.4
					z M243.6,396c-20.2,0-36.7,16.5-36.7,36.7v32c0,2.6,2.1,4.7,4.7,4.7h64c2.6,0,4.7-2.1,4.7-4.7v-32
					C280.3,412.5,263.8,396,243.6,396z M126.3,481.4h-64c-9.2,0-16.7-7.5-16.7-16.7v-32c0-26.9,21.8-48.7,48.7-48.7
					c26.9,0,48.7,21.8,48.7,48.7v32C143,473.9,135.5,481.4,126.3,481.4z M94.3,396c-20.2,0-36.7,16.5-36.7,36.7v32
					c0,2.6,2.1,4.7,4.7,4.7h64c2.6,0,4.7-2.1,4.7-4.7v-32C131,412.5,114.5,396,94.3,396z"/>
			</g>
			<g>
				<path class="st2" d="M519.6,224.7L435.7,77.8V48.7h10.7c5.9,0,10.7-4.8,10.7-10.7s-4.8-10.7-10.7-10.7h-10.7V16.7
					c0-5.9-4.8-10.7-10.7-10.7s-10.7,4.8-10.7,10.7v10.7h-10.7c-5.9,0-10.7,4.8-10.7,10.7s4.8,10.7,10.7,10.7h10.7V78l-83.9,146.9
					c-1.9,3.3-1.9,7.4,0,10.6c1.9,3.3,5.4,5.3,9.2,5.3h10.7v266.7c0,5.9,4.8,10.7,10.7,10.7h128c5.9,0,10.7-4.8,10.7-10.7V240.7
					h10.7c3.8,0,7.3-2,9.2-5.3C521.5,232.1,521.5,228,519.6,224.7z M425,347.3c-17.6,0-32-14.4-32-32s14.4-32,32-32s32,14.4,32,32
					S442.6,347.3,425,347.3z"/>
				<path class="st1" d="M489,524.2H361c-9.2,0-16.7-7.5-16.7-16.7V246.8h-4.7c-5.9,0-11.5-3.2-14.4-8.3c-3-5-3-11.4,0-16.6
					l83.1-145.5V54.8h-4.7c-9.2,0-16.7-7.5-16.7-16.7c0-9.2,7.5-16.7,16.7-16.7h4.7v-4.7C408.3,7.5,415.8,0,425,0
					s16.7,7.5,16.7,16.7v4.6h4.7c9.2,0,16.7,7.5,16.7,16.7s-7.5,16.7-16.7,16.7h-4.7v21.5l83.1,145.5c3,5.1,3,11.5,0,16.7
					c-2.9,5.1-8.5,8.3-14.4,8.3h-4.7v260.8C505.7,516.7,498.2,524.2,489,524.2z M403.6,33.4c-2.6,0-4.7,2.1-4.7,4.7
					c0,2.6,2.1,4.7,4.7,4.7h16.7v36.8l-84.7,148.3c-0.8,1.4-0.8,3.2-0.1,4.6c0.9,1.5,2.4,2.4,4,2.4h16.7v272.7
					c0,2.6,2.1,4.7,4.7,4.7h128c2.6,0,4.7-2.1,4.7-4.7V234.7h16.7c1.7,0,3.2-0.9,4-2.3c0.8-1.5,0.8-3.3,0-4.7l0,0L429.7,79.4V42.7
					h16.7c2.6,0,4.7-2.1,4.7-4.7s-2.1-4.7-4.7-4.7h-16.7V16.7c0-2.6-2.1-4.7-4.7-4.7s-4.7,2.1-4.7,4.7v16.7H403.6z M425,353.3
					c-21,0-38-17-38-38s17-38,38-38s38,17,38,38S446,353.3,425,353.3z M425,289.3c-14.3,0-26,11.7-26,26s11.7,26,26,26
					s26-11.7,26-26S439.3,289.3,425,289.3z"/>
			</g>
		</g>
	</g>
</g>
</svg>
