<?xml version="1.0" encoding="utf-8"?>
<!-- Generator: Adobe Illustrator 20.1.0, SVG Export Plug-In . SVG Version: 6.00 Build 0)  -->
<svg version="1.1" id="Capa_1" xmlns="http://www.w3.org/2000/svg" xmlns:xlink="http://www.w3.org/1999/xlink" x="0px" y="0px"
	 viewBox="0 0 58.9 60.2" style="enable-background:new 0 0 58.9 60.2;" xml:space="preserve">
<style type="text/css">
	.st0{fill:#468C5D;}
	.st1{fill:#464646;}
	.st2{fill:#6B5B4B;}
	.st3{fill:#DAE882;}
	.st4{fill:#5CB178;}
	.st5{fill:#47AAE0;}
</style>
<g>
	<path class="st0" d="M25,2.7L25,2.7c0.1,0.6,0.9,0.7,1.1,0.2l0,0c1.3-2.6,5.3-1.3,4.8,1.6l0,0c-0.1,0.6,0.6,0.9,1,0.5l0,0
		C34,2.9,37.4,5.4,36,8l0,0c-0.3,0.5,0.3,1.1,0.8,0.8l0,0c2.6-1.3,5,2,3,4.1l0,0c-0.4,0.4-0.1,1.1,0.5,1l0,0
		c2.9-0.5,4.2,3.5,1.6,4.8l0,0c-0.5,0.3-0.4,1,0.2,1.1l0,0c2.9,0.4,2.9,4.6,0,5.1l0,0c-0.6,0.1-0.7,0.9-0.2,1.1l0,0
		c2.6,1.3,1.3,5.3-1.6,4.8l0,0c-0.6-0.1-0.9,0.6-0.5,1l0,0c2.1,2.1-0.4,5.4-3,4.1l0,0c-0.5-0.3-1.1,0.3-0.8,0.8l0,0
		c1.3,2.6-2,5-4.1,3l0,0c-0.4-0.4-1.1-0.1-1,0.5l0,0c0.5,2.9-3.5,4.2-4.8,1.6l0,0c-0.3-0.5-1-0.4-1.1,0.2l0,0
		c-0.4,2.9-4.6,2.9-5.1,0l0,0c-0.1-0.6-0.9-0.7-1.1-0.2l0,0c-1.3,2.6-5.3,1.3-4.8-1.6l0,0c0.1-0.6-0.6-0.9-1-0.5l0,0
		c-2.1,2.1-5.4-0.4-4.1-3l0,0c0.3-0.5-0.3-1.1-0.8-0.8l0,0c-2.6,1.3-5-2-3-4.1l0,0c0.4-0.4,0.1-1.1-0.5-1l0,0
		C1.7,31.3,0.4,27.3,3,26l0,0c0.5-0.3,0.4-1-0.2-1.1l0,0c-2.9-0.4-2.9-4.6,0-5.1l0,0c0.6-0.1,0.7-0.9,0.2-1.1l0,0
		c-2.6-1.3-1.3-5.3,1.6-4.8l0,0c0.6,0.1,0.9-0.6,0.5-1l0,0c-2.1-2.1,0.4-5.4,3-4.1l0,0C8.6,9.1,9.2,8.5,8.9,8l0,0
		c-1.3-2.6,2-5,4.1-3l0,0c0.4,0.4,1.1,0.1,1-0.5l0,0c-0.5-2.9,3.5-4.2,4.8-1.6l0,0c0.3,0.5,1,0.4,1.1-0.2l0,0
		C20.5-0.2,24.5-0.2,25,2.7z"/>
	<path class="st1" d="M22.5,44.7c-1.3,0-2.8-0.8-3.1-2.6c0,0,0-0.1-0.1-0.1l0,0l-0.1,0c-0.8,1.6-2.5,1.9-3.7,1.5
		c-1.3-0.4-2.4-1.6-2.1-3.4c0-0.1-0.1-0.1-0.2-0.1c-1.3,1.3-2.9,1.1-3.9,0.3c-1-0.7-1.8-2.3-1-3.9l0-0.1l0,0l-0.1,0
		c-1.6,0.8-3.1,0.1-3.8-0.9c-0.8-1-1-2.7,0.3-4c0.1-0.1,0-0.1,0-0.1c-1.9,0.3-3.1-0.8-3.5-2.1c-0.4-1.2-0.1-2.9,1.5-3.7
		c0,0,0-0.1,0-0.1c0,0-0.1-0.1-0.1-0.1c-1.8-0.2-2.6-1.7-2.6-3c0-1.3,0.8-2.8,2.6-3.1c0,0,0.1,0,0.1-0.1l0,0l0-0.1
		c-1.6-0.8-1.9-2.5-1.5-3.7c0.4-1.3,1.6-2.4,3.4-2.1c0.1,0,0.1-0.1,0.1-0.2C3.5,12,3.7,10.4,4.5,9.3c0.7-1,2.3-1.8,3.9-1l0.1,0l0,0
		l0-0.1C7.7,6.6,8.4,5.1,9.4,4.4c1-0.8,2.7-1,4,0.3c0.1,0.1,0.1,0,0.1,0c-0.3-1.9,0.8-3.1,2.1-3.5c1.2-0.4,2.9-0.1,3.7,1.5
		c0,0,0.1,0,0.1,0c0,0,0.1-0.1,0.1-0.1c0.3-1.8,1.8-2.6,3-2.6s2.7,0.8,3,2.6l0,0c0,0,0,0.1,0.1,0.1l0,0l0.1,0
		c0.8-1.6,2.5-1.9,3.7-1.5c1.3,0.4,2.4,1.6,2.1,3.4c0,0.1,0.1,0.1,0.2,0.1c1.3-1.3,2.9-1.1,3.9-0.3c1,0.7,1.8,2.3,1,3.9l0,0.1l0,0
		l0.1,0c1.6-0.8,3.1-0.1,3.8,0.9c0.8,1,1,2.7-0.3,4c-0.1,0.1,0,0.1,0,0.1c1.9-0.3,3.1,0.8,3.5,2.1c0.4,1.2,0.1,2.9-1.5,3.7
		c0,0,0,0.1,0,0.1c0,0,0.1,0.1,0.1,0.1c1.8,0.2,2.6,1.7,2.6,3c0,1.3-0.8,2.8-2.6,3.1c0,0-0.1,0-0.1,0.1l0,0l0,0.1
		c1.6,0.8,1.9,2.5,1.5,3.7c-0.4,1.3-1.6,2.4-3.4,2.1c-0.1,0-0.1,0.1-0.1,0.2c1.3,1.3,1.1,2.9,0.3,3.9c-0.7,1-2.3,1.8-3.9,1l-0.1,0
		l0,0l0,0.1c0.8,1.6,0.1,3.1-0.9,3.8c-1,0.8-2.7,1-4-0.3c-0.1-0.1-0.1,0-0.1,0c0.3,1.9-0.8,3.1-2.1,3.5c-1.2,0.4-2.9,0.1-3.7-1.5
		c0,0-0.1,0-0.1,0c0,0-0.1,0.1-0.1,0.1C25.3,43.8,23.9,44.7,22.5,44.7C22.6,44.7,22.6,44.7,22.5,44.7z M19.3,41c0,0,0.1,0,0.1,0
		c0.5,0.1,0.9,0.4,1,0.9c0.2,1.2,1.2,1.8,2.1,1.8c0.8,0,1.8-0.5,2-1.7c0.1-0.5,0.4-0.8,0.9-0.9c0.5-0.1,0.9,0.1,1.2,0.5
		c0.6,1.1,1.6,1.3,2.5,1c0.8-0.3,1.6-1,1.4-2.3c-0.1-0.5,0.1-0.9,0.6-1.1c0.4-0.2,0.9-0.1,1.3,0.2c0.9,0.9,2,0.6,2.7,0.2
		c0.6-0.5,1.2-1.4,0.6-2.6c-0.2-0.4-0.2-0.9,0.2-1.3c0.4-0.4,0.9-0.4,1.3-0.2c1.1,0.5,2.1,0.1,2.6-0.7c0.5-0.6,0.7-1.7-0.2-2.6
		c-0.3-0.3-0.4-0.9-0.2-1.3c0.2-0.4,0.7-0.6,1.1-0.6c1.3,0.2,2-0.6,2.3-1.4c0.3-0.8,0.1-1.9-1-2.5c-0.4-0.2-0.6-0.6-0.6-1.1
		c0.1-0.5,0.4-0.9,0.9-1c1.2-0.2,1.8-1.2,1.8-2.1c0-0.8-0.5-1.8-1.7-2c-0.5-0.1-0.8-0.4-0.9-0.9c-0.1-0.5,0.1-0.9,0.5-1.2
		c1.1-0.6,1.3-1.6,1-2.5c-0.3-0.8-1-1.6-2.3-1.4c-0.5,0.1-0.9-0.1-1.1-0.6c-0.2-0.4-0.1-0.9,0.2-1.3c0.9-0.9,0.6-2,0.2-2.7
		c-0.5-0.6-1.4-1.2-2.6-0.6c-0.4,0.2-0.9,0.2-1.3-0.2c-0.4-0.4-0.4-0.9-0.2-1.3c0.5-1.1,0.1-2.1-0.7-2.6c-0.6-0.5-1.7-0.7-2.6,0.2
		C32,5.7,31.4,5.8,31,5.6c-0.4-0.2-0.6-0.7-0.6-1.1c0.2-1.3-0.6-2-1.4-2.3c-0.8-0.3-1.9-0.1-2.5,1c-0.2,0.4-0.6,0.6-1.1,0.6
		c-0.5-0.1-0.9-0.4-1-0.9C24.3,1.5,23.3,1,22.5,1s-1.8,0.5-2.1,1.8c-0.1,0.5-0.4,0.8-0.9,0.9c-0.5,0.1-0.9-0.1-1.2-0.5
		c-0.6-1.1-1.6-1.3-2.5-1c-0.8,0.3-1.6,1-1.4,2.3c0.1,0.5-0.1,0.9-0.6,1.1c-0.4,0.2-0.9,0.1-1.3-0.2c-0.9-0.9-2-0.6-2.7-0.2
		C9.4,5.7,8.8,6.6,9.4,7.8c0.2,0.4,0.2,0.9-0.2,1.3C8.8,9.4,8.3,9.5,7.9,9.2C6.8,8.7,5.8,9.2,5.3,9.9c-0.5,0.6-0.7,1.7,0.2,2.6
		c0.3,0.3,0.4,0.9,0.2,1.3c-0.2,0.4-0.7,0.6-1.1,0.6c-1.3-0.2-2,0.6-2.3,1.4c-0.3,0.8-0.1,1.9,1,2.5c0.4,0.2,0.6,0.6,0.6,1.1
		c-0.1,0.5-0.4,0.9-0.9,1c-1.2,0.2-1.8,1.2-1.8,2.1c0,0.8,0.5,1.8,1.7,2c0.5,0.1,0.8,0.4,0.9,0.9c0.1,0.5-0.1,0.9-0.5,1.2
		c-1.1,0.6-1.3,1.6-1,2.5c0.3,0.8,1,1.6,2.3,1.4c0.5-0.1,0.9,0.1,1.1,0.6c0.2,0.4,0.1,0.9-0.2,1.3c-0.9,0.9-0.6,2-0.2,2.7
		c0.5,0.6,1.4,1.2,2.6,0.6c0.4-0.2,0.9-0.2,1.3,0.2C9.6,36,9.6,36.5,9.4,37C8.8,38,9.3,39.1,10,39.6c0.6,0.5,1.7,0.7,2.6-0.2
		c0.3-0.3,0.9-0.4,1.3-0.2c0.4,0.2,0.6,0.7,0.6,1.1c-0.2,1.3,0.6,2,1.4,2.3c0.8,0.3,1.9,0.1,2.5-1C18.5,41.2,18.9,41,19.3,41z"/>
</g>
<g>
	<path class="st2" d="M25,41.8c-0.4,2.9-4.6,2.9-5.1,0c-0.1-0.4-0.7-0.6-0.7-0.5s0,17.2,0,17.2h6c0,0,0-17,0-17.1S25,41.7,25,41.8z"
		/>
	<path class="st1" d="M25.8,59h-7V40.9l0.5-0.1c0.4,0,1.1,0.3,1.2,0.9c0.2,1.3,1.2,1.8,2.1,1.8c0.8,0,1.8-0.5,2-1.7l0,0
		c0-0.2,0.2-0.8,0.7-0.8h0.5l0,0.5V59z M19.8,58h5V43.6c-0.6,0.6-1.4,0.9-2.2,0.9c-1,0-2.3-0.5-2.8-1.7V58z M25.5,41.9L25.5,41.9
		L25.5,41.9C25.5,41.9,25.5,41.9,25.5,41.9z"/>
</g>
<g>
	<path class="st3" d="M25.3,34.5c-0.6,0-1-0.4-1-1c0-5,4-9,9-9c0.6,0,1,0.4,1,1s-0.4,1-1,1c-3.9,0-7,3.1-7,7
		C26.3,34.1,25.8,34.5,25.3,34.5z"/>
	<path class="st1" d="M25.3,35c-0.9,0-1.5-0.6-1.5-1.5c0-5.2,4.3-9.5,9.5-9.5c0.9,0,1.5,0.6,1.5,1.5S34.1,27,33.3,27
		c-3.6,0-6.5,2.9-6.5,6.5C26.8,34.3,26.1,35,25.3,35z M33.3,25c-4.7,0-8.5,3.8-8.5,8.5c0,0.3,0.2,0.5,0.5,0.5c0.2,0,0.5-0.2,0.5-0.5
		c0-4.2,3.3-7.5,7.5-7.5c0.3,0,0.5-0.2,0.5-0.5S33.6,25,33.3,25z"/>
</g>
<g>
	<path class="st3" d="M19.3,37.5c-0.6,0-1-0.4-1-1c0-3.9-3.1-7-7-7c-0.6,0-1-0.4-1-1s0.4-1,1-1c5,0,9,4,9,9
		C20.3,37.1,19.8,37.5,19.3,37.5z"/>
	<path class="st1" d="M19.3,38c-0.9,0-1.5-0.6-1.5-1.5c0-3.6-2.9-6.5-6.5-6.5c-0.9,0-1.5-0.6-1.5-1.5s0.6-1.5,1.5-1.5
		c5.2,0,9.5,4.3,9.5,9.5C20.8,37.3,20.1,38,19.3,38z M11.3,28c-0.3,0-0.5,0.2-0.5,0.5s0.2,0.5,0.5,0.5c4.2,0,7.5,3.3,7.5,7.5
		c0,0.3,0.2,0.5,0.5,0.5c0.2,0,0.5-0.2,0.5-0.5C19.8,31.8,15.9,28,11.3,28z"/>
</g>
<g>
	<path class="st3" d="M21.3,26.5c-0.6,0-1-0.4-1-1c0-3.9-3.1-7-7-7c-0.6,0-1-0.4-1-1s0.4-1,1-1c5,0,9,4,9,9
		C22.3,26.1,21.8,26.5,21.3,26.5z"/>
	<path class="st1" d="M21.3,27c-0.9,0-1.5-0.6-1.5-1.5c0-3.6-2.9-6.5-6.5-6.5c-0.9,0-1.5-0.6-1.5-1.5s0.6-1.5,1.5-1.5
		c5.2,0,9.5,4.3,9.5,9.5C22.8,26.3,22.1,27,21.3,27z M13.3,17c-0.3,0-0.5,0.2-0.5,0.5s0.2,0.5,0.5,0.5c4.2,0,7.5,3.3,7.5,7.5
		c0,0.3,0.2,0.5,0.5,0.5c0.2,0,0.5-0.2,0.5-0.5C21.8,20.8,17.9,17,13.3,17z"/>
</g>
<g>
	<path class="st3" d="M22.3,18.5c-0.6,0-1-0.4-1-1c0-5,4-9,9-9c0.6,0,1,0.4,1,1s-0.4,1-1,1c-3.9,0-7,3.1-7,7
		C23.3,18.1,22.8,18.5,22.3,18.5z"/>
	<path class="st1" d="M22.3,19c-0.9,0-1.5-0.6-1.5-1.5c0-5.2,4.3-9.5,9.5-9.5c0.9,0,1.5,0.6,1.5,1.5S31.1,11,30.3,11
		c-3.6,0-6.5,2.9-6.5,6.5C23.8,18.3,23.1,19,22.3,19z M30.3,9c-4.7,0-8.5,3.8-8.5,8.5c0,0.3,0.2,0.5,0.5,0.5c0.2,0,0.5-0.2,0.5-0.5
		c0-4.2,3.3-7.5,7.5-7.5c0.3,0,0.5-0.2,0.5-0.5S30.6,9,30.3,9z"/>
</g>
<g>
	<path class="st3" d="M37.3,18.5c-2.2,0-4-1.8-4-4c0-0.6,0.4-1,1-1s1,0.4,1,1c0,1.1,0.9,2,2,2c0.6,0,1,0.4,1,1S37.8,18.5,37.3,18.5z
		"/>
	<path class="st1" d="M37.3,19c-2.5,0-4.5-2-4.5-4.5c0-0.9,0.6-1.5,1.5-1.5s1.5,0.6,1.5,1.5c0,0.8,0.7,1.5,1.5,1.5
		c0.9,0,1.5,0.6,1.5,1.5C38.8,18.3,38.1,19,37.3,19z M34.3,14c-0.3,0-0.5,0.2-0.5,0.5c0,1.9,1.6,3.5,3.5,3.5c0.2,0,0.5-0.2,0.5-0.5
		c0-0.3-0.2-0.5-0.5-0.5c-1.4,0-2.5-1.1-2.5-2.5C34.8,14.2,34.6,14,34.3,14z"/>
</g>
<g>
	<path class="st3" d="M28.3,22.5c-0.6,0-1-0.4-1-1c0-2.2,1.8-4,4-4c0.6,0,1,0.4,1,1s-0.4,1-1,1c-1.1,0-2,0.9-2,2
		C29.3,22.1,28.8,22.5,28.3,22.5z"/>
	<path class="st1" d="M28.3,23c-0.9,0-1.5-0.6-1.5-1.5c0-2.5,2-4.5,4.5-4.5c0.9,0,1.5,0.6,1.5,1.5S32.1,20,31.3,20
		c-0.8,0-1.5,0.7-1.5,1.5S29.1,23,28.3,23z M31.3,18c-1.9,0-3.5,1.6-3.5,3.5c0,0.3,0.2,0.5,0.5,0.5c0.2,0,0.5-0.2,0.5-0.5
		c0-1.4,1.1-2.5,2.5-2.5c0.3,0,0.5-0.2,0.5-0.5S31.6,18,31.3,18z"/>
</g>
<g>
	<path class="st3" d="M19.3,11.5c-2.2,0-4-1.8-4-4c0-0.6,0.4-1,1-1s1,0.4,1,1c0,1.1,0.9,2,2,2c0.6,0,1,0.4,1,1S19.8,11.5,19.3,11.5z
		"/>
	<path class="st1" d="M19.3,12c-2.5,0-4.5-2-4.5-4.5c0-0.9,0.6-1.5,1.5-1.5s1.5,0.6,1.5,1.5c0,0.8,0.7,1.5,1.5,1.5
		c0.9,0,1.5,0.6,1.5,1.5C20.8,11.3,20.1,12,19.3,12z M16.3,7c-0.3,0-0.5,0.2-0.5,0.5c0,1.9,1.6,3.5,3.5,3.5c0.2,0,0.5-0.2,0.5-0.5
		c0-0.3-0.2-0.5-0.5-0.5c-1.4,0-2.5-1.1-2.5-2.5C16.8,7.2,16.6,7,16.3,7z"/>
</g>
<g>
	<path class="st3" d="M8.3,24.5c-0.6,0-1-0.4-1-1s0.4-1,1-1c1.1,0,2-0.9,2-2c0-0.6,0.4-1,1-1s1,0.4,1,1
		C12.3,22.7,10.4,24.5,8.3,24.5z"/>
	<path class="st1" d="M8.3,25c-0.9,0-1.5-0.6-1.5-1.5S7.4,22,8.3,22c0.8,0,1.5-0.7,1.5-1.5c0-0.9,0.6-1.5,1.5-1.5s1.5,0.6,1.5,1.5
		C12.8,23,10.7,25,8.3,25z M11.3,20c-0.3,0-0.5,0.2-0.5,0.5c0,1.4-1.1,2.5-2.5,2.5c-0.3,0-0.5,0.2-0.5,0.5S7.9,24,8.3,24
		c1.9,0,3.5-1.6,3.5-3.5C11.8,20.2,11.6,20,11.3,20z"/>
</g>
<g>
	<path class="st3" d="M32.3,34.5c-0.6,0-1-0.4-1-1c0-2.2,1.8-4,4-4c0.6,0,1,0.4,1,1s-0.4,1-1,1c-1.1,0-2,0.9-2,2
		C33.3,34.1,32.8,34.5,32.3,34.5z"/>
	<path class="st1" d="M32.3,35c-0.9,0-1.5-0.6-1.5-1.5c0-2.5,2-4.5,4.5-4.5c0.9,0,1.5,0.6,1.5,1.5S36.1,32,35.3,32
		c-0.8,0-1.5,0.7-1.5,1.5S33.1,35,32.3,35z M35.3,30c-1.9,0-3.5,1.6-3.5,3.5c0,0.3,0.2,0.5,0.5,0.5c0.2,0,0.5-0.2,0.5-0.5
		c0-1.4,1.1-2.5,2.5-2.5c0.3,0,0.5-0.2,0.5-0.5S35.6,30,35.3,30z"/>
</g>
<g>
	<path class="st4" d="M16.3,59.5c-0.6,0-1-0.4-1-1v-1c0-0.6,0.4-1,1-1s1,0.4,1,1v1C17.3,59.1,16.8,59.5,16.3,59.5z"/>
	<path class="st1" d="M16.3,60c-0.9,0-1.5-0.6-1.5-1.5v-1c0-0.9,0.6-1.5,1.5-1.5s1.5,0.6,1.5,1.5v1C17.8,59.3,17.1,60,16.3,60z
		 M16.3,57c-0.3,0-0.5,0.2-0.5,0.5v1c0,0.3,0.2,0.5,0.5,0.5c0.2,0,0.5-0.2,0.5-0.5v-1C16.8,57.2,16.6,57,16.3,57z"/>
</g>
<g>
	<path class="st4" d="M13.3,59.5c-0.6,0-1-0.4-1-1v-1c0-0.6,0.4-1,1-1s1,0.4,1,1v1C14.3,59.1,13.8,59.5,13.3,59.5z"/>
	<path class="st1" d="M13.3,60c-0.9,0-1.5-0.6-1.5-1.5v-1c0-0.9,0.6-1.5,1.5-1.5s1.5,0.6,1.5,1.5v1C14.8,59.3,14.1,60,13.3,60z
		 M13.3,57c-0.3,0-0.5,0.2-0.5,0.5v1c0,0.3,0.2,0.5,0.5,0.5c0.2,0,0.5-0.2,0.5-0.5v-1C13.8,57.2,13.6,57,13.3,57z"/>
</g>
<g>
	<path class="st4" d="M10.3,59.5c-0.6,0-1-0.4-1-1v-1c0-0.6,0.4-1,1-1s1,0.4,1,1v1C11.3,59.1,10.8,59.5,10.3,59.5z"/>
	<path class="st1" d="M10.3,60c-0.9,0-1.5-0.6-1.5-1.5v-1c0-0.9,0.6-1.5,1.5-1.5s1.5,0.6,1.5,1.5v1C11.8,59.3,11.1,60,10.3,60z
		 M10.3,57c-0.3,0-0.5,0.2-0.5,0.5v1c0,0.3,0.2,0.5,0.5,0.5c0.2,0,0.5-0.2,0.5-0.5v-1C10.8,57.2,10.6,57,10.3,57z"/>
</g>
<g>
	<path class="st4" d="M7.3,59.5c-0.6,0-1-0.4-1-1v-1c0-0.6,0.4-1,1-1s1,0.4,1,1v1C8.3,59.1,7.8,59.5,7.3,59.5z"/>
	<path class="st1" d="M7.3,60c-0.9,0-1.5-0.6-1.5-1.5v-1c0-0.9,0.6-1.5,1.5-1.5s1.5,0.6,1.5,1.5v1C8.8,59.3,8.1,60,7.3,60z M7.3,57
		c-0.3,0-0.5,0.2-0.5,0.5v1c0,0.3,0.2,0.5,0.5,0.5c0.2,0,0.5-0.2,0.5-0.5v-1C7.8,57.2,7.6,57,7.3,57z"/>
</g>
<g>
	<path class="st4" d="M4.3,59.5c-0.6,0-1-0.4-1-1v-1c0-0.6,0.4-1,1-1s1,0.4,1,1v1C5.3,59.1,4.8,59.5,4.3,59.5z"/>
	<path class="st1" d="M4.3,60c-0.9,0-1.5-0.6-1.5-1.5v-1c0-0.9,0.6-1.5,1.5-1.5s1.5,0.6,1.5,1.5v1C5.8,59.3,5.1,60,4.3,60z M4.3,57
		c-0.3,0-0.5,0.2-0.5,0.5v1c0,0.3,0.2,0.5,0.5,0.5c0.2,0,0.5-0.2,0.5-0.5v-1C4.8,57.2,4.6,57,4.3,57z"/>
</g>
<g>
	<path class="st4" d="M34.3,59.5c-0.6,0-1-0.4-1-1v-1c0-0.6,0.4-1,1-1s1,0.4,1,1v1C35.3,59.1,34.8,59.5,34.3,59.5z"/>
	<path class="st1" d="M34.3,60c-0.9,0-1.5-0.6-1.5-1.5v-1c0-0.9,0.6-1.5,1.5-1.5s1.5,0.6,1.5,1.5v1C35.8,59.3,35.1,60,34.3,60z
		 M34.3,57c-0.3,0-0.5,0.2-0.5,0.5v1c0,0.3,0.2,0.5,0.5,0.5c0.2,0,0.5-0.2,0.5-0.5v-1C34.8,57.2,34.6,57,34.3,57z"/>
</g>
<g>
	<path class="st4" d="M31.3,59.5c-0.6,0-1-0.4-1-1v-1c0-0.6,0.4-1,1-1s1,0.4,1,1v1C32.3,59.1,31.8,59.5,31.3,59.5z"/>
	<path class="st1" d="M31.3,60c-0.9,0-1.5-0.6-1.5-1.5v-1c0-0.9,0.6-1.5,1.5-1.5s1.5,0.6,1.5,1.5v1C32.8,59.3,32.1,60,31.3,60z
		 M31.3,57c-0.3,0-0.5,0.2-0.5,0.5v1c0,0.3,0.2,0.5,0.5,0.5c0.2,0,0.5-0.2,0.5-0.5v-1C31.8,57.2,31.6,57,31.3,57z"/>
</g>
<g>
	<path class="st4" d="M28.3,59.5c-0.6,0-1-0.4-1-1v-1c0-0.6,0.4-1,1-1s1,0.4,1,1v1C29.3,59.1,28.8,59.5,28.3,59.5z"/>
	<path class="st1" d="M28.3,60c-0.9,0-1.5-0.6-1.5-1.5v-1c0-0.9,0.6-1.5,1.5-1.5s1.5,0.6,1.5,1.5v1C29.8,59.3,29.1,60,28.3,60z
		 M28.3,57c-0.3,0-0.5,0.2-0.5,0.5v1c0,0.3,0.2,0.5,0.5,0.5c0.2,0,0.5-0.2,0.5-0.5v-1C28.8,57.2,28.6,57,28.3,57z"/>
</g>
<g>
	<path class="st4" d="M43.3,59.5c-0.6,0-1-0.4-1-1v-1c0-0.6,0.4-1,1-1s1,0.4,1,1v1C44.3,59.1,43.8,59.5,43.3,59.5z"/>
	<path class="st1" d="M43.3,60c-0.9,0-1.5-0.6-1.5-1.5v-1c0-0.9,0.6-1.5,1.5-1.5s1.5,0.6,1.5,1.5v1C44.8,59.3,44.1,60,43.3,60z
		 M43.3,57c-0.3,0-0.5,0.2-0.5,0.5v1c0,0.3,0.2,0.5,0.5,0.5c0.2,0,0.5-0.2,0.5-0.5v-1C43.8,57.2,43.6,57,43.3,57z"/>
</g>
<g>
	<path class="st4" d="M40.3,59.5c-0.6,0-1-0.4-1-1v-1c0-0.6,0.4-1,1-1s1,0.4,1,1v1C41.3,59.1,40.8,59.5,40.3,59.5z"/>
	<path class="st1" d="M40.3,60c-0.9,0-1.5-0.6-1.5-1.5v-1c0-0.9,0.6-1.5,1.5-1.5s1.5,0.6,1.5,1.5v1C41.8,59.3,41.1,60,40.3,60z
		 M40.3,57c-0.3,0-0.5,0.2-0.5,0.5v1c0,0.3,0.2,0.5,0.5,0.5c0.2,0,0.5-0.2,0.5-0.5v-1C40.8,57.2,40.6,57,40.3,57z"/>
</g>
<g>
	<path class="st4" d="M37.3,59.5c-0.6,0-1-0.4-1-1v-1c0-0.6,0.4-1,1-1s1,0.4,1,1v1C38.3,59.1,37.8,59.5,37.3,59.5z"/>
	<path class="st1" d="M37.3,60c-0.9,0-1.5-0.6-1.5-1.5v-1c0-0.9,0.6-1.5,1.5-1.5s1.5,0.6,1.5,1.5v1C38.8,59.3,38.1,60,37.3,60z
		 M37.3,57c-0.3,0-0.5,0.2-0.5,0.5v1c0,0.3,0.2,0.5,0.5,0.5c0.2,0,0.5-0.2,0.5-0.5v-1C37.8,57.2,37.6,57,37.3,57z"/>
</g>
<g>
	<path class="st4" d="M52.3,59.5c-0.6,0-1-0.4-1-1v-1c0-0.6,0.4-1,1-1s1,0.4,1,1v1C53.3,59.1,52.8,59.5,52.3,59.5z"/>
	<path class="st1" d="M52.3,60c-0.9,0-1.5-0.6-1.5-1.5v-1c0-0.9,0.6-1.5,1.5-1.5s1.5,0.6,1.5,1.5v1C53.8,59.3,53.1,60,52.3,60z
		 M52.3,57c-0.3,0-0.5,0.2-0.5,0.5v1c0,0.3,0.2,0.5,0.5,0.5c0.2,0,0.5-0.2,0.5-0.5v-1C52.8,57.2,52.6,57,52.3,57z"/>
</g>
<g>
	<path class="st4" d="M49.3,59.5c-0.6,0-1-0.4-1-1v-1c0-0.6,0.4-1,1-1s1,0.4,1,1v1C50.3,59.1,49.8,59.5,49.3,59.5z"/>
	<path class="st1" d="M49.3,60c-0.9,0-1.5-0.6-1.5-1.5v-1c0-0.9,0.6-1.5,1.5-1.5s1.5,0.6,1.5,1.5v1C50.8,59.3,50.1,60,49.3,60z
		 M49.3,57c-0.3,0-0.5,0.2-0.5,0.5v1c0,0.3,0.2,0.5,0.5,0.5c0.2,0,0.5-0.2,0.5-0.5v-1C49.8,57.2,49.6,57,49.3,57z"/>
</g>
<g>
	<path class="st4" d="M46.3,59.5c-0.6,0-1-0.4-1-1v-1c0-0.6,0.4-1,1-1s1,0.4,1,1v1C47.3,59.1,46.8,59.5,46.3,59.5z"/>
	<path class="st1" d="M46.3,60c-0.9,0-1.5-0.6-1.5-1.5v-1c0-0.9,0.6-1.5,1.5-1.5s1.5,0.6,1.5,1.5v1C47.8,59.3,47.1,60,46.3,60z
		 M46.3,57c-0.3,0-0.5,0.2-0.5,0.5v1c0,0.3,0.2,0.5,0.5,0.5c0.2,0,0.5-0.2,0.5-0.5v-1C46.8,57.2,46.6,57,46.3,57z"/>
</g>
<g>
	<path class="st5" d="M51.3,13.5c-0.6,0-1-0.4-1-1c0-3.9,3.1-7,7-7c0.6,0,1,0.4,1,1s-0.4,1-1,1c-2.8,0-5,2.2-5,5
		C52.3,13.1,51.8,13.5,51.3,13.5z"/>
	<path class="st1" d="M51.3,14c-0.9,0-1.5-0.6-1.5-1.5C49.8,8.3,53,5,57.3,5c0.9,0,1.5,0.6,1.5,1.5S58.1,8,57.3,8
		c-2.5,0-4.5,2-4.5,4.5C52.8,13.3,52.1,14,51.3,14z M57.3,6c-3.6,0-6.5,2.9-6.5,6.5c0,0.3,0.2,0.5,0.5,0.5c0.2,0,0.5-0.2,0.5-0.5
		c0-3.1,2.4-5.5,5.5-5.5c0.3,0,0.5-0.2,0.5-0.5S57.6,6,57.3,6z"/>
</g>
<g>
	<path class="st5" d="M51.3,13.5c-0.6,0-1-0.4-1-1c0-2.2-1.8-4-4-4c-0.6,0-1-0.4-1-1s0.4-1,1-1c3.3,0,6,2.7,6,6
		C52.3,13.1,51.8,13.5,51.3,13.5z"/>
	<path class="st1" d="M51.3,14c-0.9,0-1.5-0.6-1.5-1.5c0-1.9-1.6-3.5-3.5-3.5c-0.9,0-1.5-0.6-1.5-1.5S45.4,6,46.3,6
		c3.6,0,6.5,2.9,6.5,6.5C52.8,13.3,52.1,14,51.3,14z M46.3,7c-0.3,0-0.5,0.2-0.5,0.5S45.9,8,46.3,8c2.5,0,4.5,2,4.5,4.5
		c0,0.3,0.2,0.5,0.5,0.5c0.2,0,0.5-0.2,0.5-0.5C51.8,9.5,49.3,7,46.3,7z"/>
</g>
</svg>
