<?xml version="1.0" encoding="utf-8"?>
<!-- Generator: Adobe Illustrator 20.1.0, SVG Export Plug-In . SVG Version: 6.00 Build 0)  -->
<svg version="1.1" id="Layer_1" xmlns="http://www.w3.org/2000/svg" xmlns:xlink="http://www.w3.org/1999/xlink" x="0px" y="0px"
	 viewBox="0 0 512 288" style="enable-background:new 0 0 512 288;" xml:space="preserve">
<style type="text/css">
	.st0{fill:#FF7247;}
	.st1{fill:#6B6D92;}
	.st2{fill:#57565E;}
	.st3{fill:#B4B6BC;}
</style>
<g>
	<g>
		<path class="st0" d="M304.9,32l6.2-12.4c1.2-2.5,1.1-5.4-0.4-7.8s-4-3.8-6.8-3.8h-48c-4.4,0-8,3.6-8,8v32c0,4.4,3.6,8,8,8h48
			c2.8,0,5.3-1.4,6.8-3.8s1.6-5.3,0.4-7.8L304.9,32z"/>
	</g>
	<g>
		<g>
			<path class="st1" d="M256,80c-4.4,0-8-3.6-8-8V8c0-4.4,3.6-8,8-8s8,3.6,8,8v64C264,76.4,260.4,80,256,80z"/>
		</g>
	</g>
	<g>
		<rect x="360" y="160" class="st2" width="128" height="112"/>
	</g>
	<g>
		<rect x="24" y="160" class="st2" width="128" height="112"/>
	</g>
	<g>
		<g>
			<path class="st3" d="M344,168h144c4.4,0,8-3.6,8-8s-3.6-8-8-8H344c-4.4,0-8,3.6-8,8S339.6,168,344,168z"/>
		</g>
	</g>
	<g>
		<g>
			<path class="st3" d="M168,168H24c-4.4,0-8-3.6-8-8s3.6-8,8-8h144c4.4,0,8,3.6,8,8S172.4,168,168,168z"/>
		</g>
	</g>
	<g>
		<g>
			<g>
				<path class="st1" d="M384,256c4.4,0,8-3.6,8-8v-8c0-4.4-3.6-8-8-8s-8,3.6-8,8v8C376,252.4,379.6,256,384,256z"/>
			</g>
		</g>
		<g>
			<g>
				<path class="st1" d="M408,256c4.4,0,8-3.6,8-8v-8c0-4.4-3.6-8-8-8s-8,3.6-8,8v8C400,252.4,403.6,256,408,256z"/>
			</g>
		</g>
		<g>
			<g>
				<path class="st1" d="M432,256c4.4,0,8-3.6,8-8v-8c0-4.4-3.6-8-8-8s-8,3.6-8,8v8C424,252.4,427.6,256,432,256z"/>
			</g>
		</g>
		<g>
			<g>
				<path class="st1" d="M456,256c4.4,0,8-3.6,8-8v-8c0-4.4-3.6-8-8-8s-8,3.6-8,8v8C448,252.4,451.6,256,456,256z"/>
			</g>
		</g>
		<g>
			<g>
				<path class="st1" d="M384,224c4.4,0,8-3.6,8-8v-24c0-4.4-3.6-8-8-8s-8,3.6-8,8v24C376,220.4,379.6,224,384,224z"/>
			</g>
		</g>
		<g>
			<g>
				<path class="st1" d="M408,224c4.4,0,8-3.6,8-8v-24c0-4.4-3.6-8-8-8s-8,3.6-8,8v24C400,220.4,403.6,224,408,224z"/>
			</g>
		</g>
		<g>
			<g>
				<path class="st1" d="M432,224c4.4,0,8-3.6,8-8v-24c0-4.4-3.6-8-8-8s-8,3.6-8,8v24C424,220.4,427.6,224,432,224z"/>
			</g>
		</g>
		<g>
			<g>
				<path class="st1" d="M456,224c4.4,0,8-3.6,8-8v-24c0-4.4-3.6-8-8-8s-8,3.6-8,8v24C448,220.4,451.6,224,456,224z"/>
			</g>
		</g>
	</g>
	<g>
		<polygon class="st3" points="152,132.3 360,132.3 256,76.8 		"/>
	</g>
	<g>
		<rect x="159.8" y="136" class="st2" width="192" height="144"/>
	</g>
	<g>
		<g>
			<path class="st3" d="M256,288c-4.4,0-8-3.6-8-8V136c0-4.4,3.6-8,8-8s8,3.6,8,8v144C264,284.4,260.4,288,256,288z"/>
		</g>
	</g>
	<g>
		<g>
			<path class="st3" d="M224,288c-4.4,0-8-3.6-8-8V136c0-4.4,3.6-8,8-8s8,3.6,8,8v144C232,284.4,228.4,288,224,288z"/>
		</g>
	</g>
	<g>
		<g>
			<path class="st3" d="M192,288c-4.4,0-8-3.6-8-8V136c0-4.4,3.6-8,8-8s8,3.6,8,8v144C200,284.4,196.4,288,192,288z"/>
		</g>
	</g>
	<g>
		<g>
			<path class="st3" d="M320,288c-4.4,0-8-3.6-8-8V136c0-4.4,3.6-8,8-8s8,3.6,8,8v144C328,284.4,324.4,288,320,288z"/>
		</g>
	</g>
	<g>
		<g>
			<path class="st3" d="M288,288c-4.4,0-8-3.6-8-8V136c0-4.4,3.6-8,8-8s8,3.6,8,8v144C296,284.4,292.4,288,288,288z"/>
		</g>
	</g>
	<g>
		<g>
			<path class="st3" d="M352,288c-4.4,0-8-3.6-8-8V136c0-4.4,3.6-8,8-8s8,3.6,8,8v144C360,284.4,356.4,288,352,288z"/>
		</g>
	</g>
	<g>
		<g>
			<path class="st3" d="M160,288c-4.4,0-8-3.6-8-8V136c0-4.4,3.6-8,8-8s8,3.6,8,8v144C168,284.4,164.4,288,160,288z"/>
		</g>
	</g>
	<g>
		<g>
			<path class="st2" d="M376,144H136c-3.7,0-6.9-2.5-7.8-6.1c-0.9-3.6,0.8-7.3,4-9l120-64c2.4-1.3,5.2-1.3,7.5,0l120,64
				c3.2,1.7,4.9,5.4,4,9C382.9,141.5,379.7,144,376,144z M168,128h176l-88-46.9L168,128z"/>
		</g>
	</g>
	<g>
		<g>
			<g>
				<path class="st1" d="M128,256c-4.4,0-8-3.6-8-8v-8c0-4.4,3.6-8,8-8c4.4,0,8,3.6,8,8v8C136,252.4,132.4,256,128,256z"/>
			</g>
		</g>
		<g>
			<g>
				<path class="st1" d="M104,256c-4.4,0-8-3.6-8-8v-8c0-4.4,3.6-8,8-8s8,3.6,8,8v8C112,252.4,108.4,256,104,256z"/>
			</g>
		</g>
		<g>
			<g>
				<path class="st1" d="M80,256c-4.4,0-8-3.6-8-8v-8c0-4.4,3.6-8,8-8s8,3.6,8,8v8C88,252.4,84.4,256,80,256z"/>
			</g>
		</g>
		<g>
			<g>
				<path class="st1" d="M56,256c-4.4,0-8-3.6-8-8v-8c0-4.4,3.6-8,8-8s8,3.6,8,8v8C64,252.4,60.4,256,56,256z"/>
			</g>
		</g>
		<g>
			<g>
				<path class="st1" d="M128,224c-4.4,0-8-3.6-8-8v-24c0-4.4,3.6-8,8-8c4.4,0,8,3.6,8,8v24C136,220.4,132.4,224,128,224z"/>
			</g>
		</g>
		<g>
			<g>
				<path class="st1" d="M104,224c-4.4,0-8-3.6-8-8v-24c0-4.4,3.6-8,8-8s8,3.6,8,8v24C112,220.4,108.4,224,104,224z"/>
			</g>
		</g>
		<g>
			<g>
				<path class="st1" d="M80,224c-4.4,0-8-3.6-8-8v-24c0-4.4,3.6-8,8-8s8,3.6,8,8v24C88,220.4,84.4,224,80,224z"/>
			</g>
		</g>
		<g>
			<g>
				<path class="st1" d="M56,224c-4.4,0-8-3.6-8-8v-24c0-4.4,3.6-8,8-8s8,3.6,8,8v24C64,220.4,60.4,224,56,224z"/>
			</g>
		</g>
	</g>
	<g>
		<g>
			<path class="st2" d="M271.8,120h-31.6c-4.4,0-8-3.6-8-8s3.6-8,8-8h31.6c4.4,0,8,3.6,8,8S276.2,120,271.8,120z"/>
		</g>
	</g>
	<g>
		<g>
			<path class="st1" d="M504,288H8c-4.4,0-8-3.6-8-8s3.6-8,8-8h496c4.4,0,8,3.6,8,8S508.4,288,504,288z"/>
		</g>
	</g>
</g>
</svg>
