<?xml version="1.0" encoding="utf-8"?>
<!-- Generator: Adobe Illustrator 20.1.0, SVG Export Plug-In . SVG Version: 6.00 Build 0)  -->
<svg version="1.1" id="Layer_1" xmlns="http://www.w3.org/2000/svg" xmlns:xlink="http://www.w3.org/1999/xlink" x="0px" y="0px"
	 viewBox="0 0 579.8 239.1" style="enable-background:new 0 0 579.8 239.1;" xml:space="preserve">
<style type="text/css">
	.st0{fill:#705E5E;}
	.st1{fill:#4D4D4D;}
</style>
<g>
	<path class="st0" d="M576.6,88.8c0,82.2,0,61.1,0.1,143.2c0,3.3-0.6,3.9-3.9,3.9c-188.6-0.1-377.1-0.1-565.7,0
		c-3.3,0-3.9-0.6-3.9-3.9c0.1-59.2,0.1-15.2,0.1-74.4c5.2,1.6,5.2-4.1,8.1-6c6.4-4.1,15.5-6.8,12-18c-1.1-3.5,1.5-5.9,3.7-8.7
		c4.8-5.9,15.9-3.3,17.6-10.6C47.3,103,54.9,95.1,64,94.5c10.9-0.7,12.9-8.4,17.1-14.1c8.4-11.3,14.6-23.8,7.2-38.4
		c-2.7-5.3-1.9-11.2,2.3-14.5c5.3-4.1,11.8-7.4,14.9-7.3c14-2.6,16.7-14.8,28.9-16.2c12.4-1.5,23.3-1.2,33.9,5.6
		c7.1,4.6,11.4,13.7,22,13.5c1,0,6.9-0.1,8.9,3.5c3.8,6.7,10.6,9.1,17.4,10.2c8.6,1.3,11.3-8.3,18.1-10.9c7.7-2.9,16.3-1.9,23.4-4.9
		c7.6-3.2,14.2-7.4,23-7.9c13.1-0.7,24.9-11.9,39.2-5.2c3.2,1.5,6.7,3.6,9.8,3.3c5.3-0.5,9.1-1.7,12.1,5c1.5,3.4,5.2,6.8,9.6,9.1
		c10.4,5.4,18.3-2.2,27-4.3c8.9-2.1,16.6-6.9,27-6c19.7,1.7,37.2,9.1,54.7,16.8c11.8,5.2,22.1,13.7,33.8,19
		c5.9,2.7,11.2,6.4,17.1,8.8c13.5,5.5,27.5,10,40.3,16.7C559.9,80.5,567.7,85.8,576.6,88.8z M233.7,156.1c1-2,3.4-3.9,1-6.3
		c-0.4-0.4-3.1,0.4-3.5,1.2c-1.3,2.6,0.3,4.1,2.7,4.9c-1.5,7.4-3,14.7-4.9,23.7c4.2-3.2,6.2-5.9,8.8-6.6c12.2-3.2-0.4-12.3,4.3-17.1
		C239.3,156,236.5,156.1,233.7,156.1z M144.1,37.7c5.7-9.6-0.9-17.3-3-26.4C133.8,21.8,141.6,29.3,144.1,37.7c-2.9-1.5-6-3-9.3-4.7
		c-3.4,21.1,7.9,41.5,1.7,62.4c-2.6-0.6-6.2-3.7-8,0.5c-2.3,5.4-3.4,11.2-4.9,16.8c-0.2,0.9,0.6,2.9,0.7,2.9
		c2.4-0.4,4.8-0.8,7.2-1.6c0.6-0.2,1.3-1.8,1-2.1c-0.7-1-2.8-1.7-0.5-3c0.9-0.5,2.9-0.3,3.3,0.4c0.8,1.1,1.6,3.6,1.1,4.1
		c-2.9,2.9-5.9,6.1-9.6,7.4c-1.2,0.4-7.1-1.3-7.9-8.2c-1.7,8.6-0.3,14.4,1.9,20.3c0.2,0.6-3.9,2.5-0.2,3.6c2.1,0.6,5.3,0.8,5.4-3.2
		c0-0.7,1.2-1.9,1.4-1.9c7,2.6,12.2-5.4,18.4-3.1c3.5-8,0.4-14.8-3.1-21.8c3.1,4.1,6.2,8.3,9.4,12.6c1.4-1.6,1.9-6.4,3.2-4.4
		c6.2,9.5,9,2,12.7-1.8c6.5-6.9,11.9-14.1,5-23.9c-2.3-3.2-3.6-6.9-2-11.5c6.3,6.5,4.3-3.2,7.7-4c2.2-0.5,3.3-4.7,1.9-7.1
		c-3.4-6.1-5.7,5.4-7.3,3.2c-4.5-9.5-4.9-17.1-3.6-24.2c1-5.5,9.7-10.3-3.2-13.7c-6-1.6-6.4,1.8-8.4,3.8c-3.4,3.5,1.4,4,2.6,5.3
		c-1.1,2.8-2,5.3-4,10.6c0-5.3,0-7.7,0-10.9c-5,4.4-0.5,9.3-2.6,13.2c-3.7-3.4-9.3-5.5-7-12.3C147.4,40.7,145.1,39,144.1,37.7z
		 M321.1,155.4c-1.5-1.1-8.7-0.4-1.8-5.6c0.4-0.3,0.2-2.4-0.3-2.7c-0.9-0.6-3.1-0.9-3.3-0.5c-2.1,3.7-7.6,2.7-9.5,7.6
		c-0.7,1.8-2.4,4.9-1,4.4C310.6,156.5,318.2,166.6,321.1,155.4z M409.5,153.4c0.8,1.5,1.4,2.6,2.4,4.5c-1.9-0.5-3-0.7-4.2-1
		c1.3,3.8,2.3,7.3,3.6,10.6c0.5,1.3,1.6,2.5,2.7,3.3c0.5,0.3,2.2-0.5,2.8-1.2C418.7,167.5,412.4,153.8,409.5,153.4z M251.7,154.1
		c1.5-5.5,1.2-9.2-2.8-12.3c-0.9,5.8-1.6,11.4-2.6,16.9c-0.2,1.1-2.5,1.8-2.7,3c-0.8,3.8,2.3,2.4,3.5,1.9c2.8-1.1,2.9-3.7,2.8-6.3
		c-0.1-2.4,0-4.8,0-11.4C250.9,150.9,251.2,151.9,251.7,154.1z M315.4,173.7c-2.9-2,1.4-7.8-2.6-6.7c-4.2,1.2-1,7.3-2,11.2
		c-0.4,1.7,1.8,2.6,3.4,1.6c3.3-2,4.8-4.7,2.7-9.1C316.2,172,315.8,172.9,315.4,173.7z M133.5,138.4c-5.6-0.5-8,2.2-8,7.4
		c0,2.1,0.9,3.1,2.8,2.7C134.4,147.4,133,142.4,133.5,138.4z M163.4,196.5c4.1-2.1,7.4-3.3,6.7-6.3c-0.7-3.1-4.4-2.5-7.6-2.9
		C163.5,190.1,165.6,192.2,163.4,196.5z M430.4,54.8c-2.1-3.4,0.9-8-4.1-9.8c-0.3-0.1-1.6,1-1.6,1.5C425,49.9,424.2,54,430.4,54.8z
		 M456.4,115.3c-4.6-4-7-6.1-9.4-8.2c-0.5,0.7-1.4,1.5-1.3,2.1C446.5,113.5,450.2,113.5,456.4,115.3z M229.7,67
		c1.4,8.3,1.4,8.3,8,5.2C235.1,70.4,232.6,68.8,229.7,67z M222,136.4c-0.7,2.5-3.1,5.1,0.4,7.1c1.1,0.6,3.3,1.6,4-0.7
		C227.8,139.1,224.7,137.9,222,136.4z M476.2,141.8c0.4-3.6,5.1-3.1,5.2-4.2c0.1-3.1-3-3.4-5.6-3.7
		C475.9,136.6,476,139.2,476.2,141.8z M290.2,45.6c-2.1,4.4-4.3,6.6-2.1,9.5c0.4,0.6,2.1,1,2.4,0.7
		C293.1,52.8,289.5,50.4,290.2,45.6z M307.5,167.7c-2.3,3.3-2.4,6.1-1.3,9.9C308.9,174.3,309,171.5,307.5,167.7z M234,78.4
		c-4.1,3.1-0.4,4.5,0.7,6.3c0.4,0.6,2.5,1.1,2.6,0.9C240.3,81.1,234.1,81.6,234,78.4z M176.6,28c-0.6-1.6-0.1-4.2-2.6-4.2
		c-0.7,0-2,2.1-2.2,3.4c-0.2,1.8,0.8,2.9,3,3.2C177.3,30.5,176.4,29,176.6,28z"/>
	<path class="st0" d="M151.3,88.7c3.8,2.7,4.2,5.6,3.8,8.7c-0.3,2.9-1.1,5.6,3.1,7c2.7,0.9,0.9,4.1,0.1,5.9c-0.5,1.1-3.4,2.2-3.6,2
		c-1.6-2.1-4.1-4.5-4.1-6.7C151,100.2,153.2,94.9,151.3,88.7z"/>
	<path class="st0" d="M147.9,84.9c3-4.3,0.9-7.5,4.5-8.1c0.6-0.1,1.9,1,2,1.6C154.8,81.2,152.6,82.1,147.9,84.9z"/>
</g>
<g>
	<path class="st1" d="M572.8,239.1C572.8,239.1,572.7,239.1,572.8,239.1c-187.7-0.1-378-0.1-565.7,0c0,0,0,0,0,0c-2,0-4-0.2-5.4-1.7
		C0.2,236,0,234,0,232c0-21.1,0.1-29.1,0.1-33.3c0-4.7,0-4.7,0-13.2l0-32.2l4.1,1.2c1,0.3,1,0.3,2.1-1.7c0.8-1.3,1.7-2.9,3.4-4
		c1-0.7,2.1-1.3,3.2-1.9c6.4-3.6,9.6-5.8,7.5-12.4c-1.5-4.7,1.4-8.1,3.4-10.6c0.3-0.3,0.6-0.7,0.8-1c2.8-3.5,6.9-4.6,10.5-5.6
		c4.2-1.1,6-1.8,6.4-3.8c2.9-12.9,11.6-21.6,22.1-22.4c7-0.5,9.3-4.2,12.1-8.8c0.8-1.3,1.7-2.7,2.6-4c7.6-10.2,13.8-21.6,6.9-35.1
		c-3.4-6.7-2.1-14.3,3.2-18.4c4.9-3.8,12.1-7.9,16.6-8c6.1-1.2,9.7-4.4,13.5-7.9c4.1-3.7,8.3-7.5,15.3-8.3c11.6-1.4,23.9-1.6,36,6.1
		c2.6,1.6,4.7,3.7,6.8,5.8c4,3.9,7.5,7.3,13.4,7.2c3.3-0.1,9.1,0.5,11.8,5.1c2.8,4.8,7.4,7.4,15.2,8.6c3.4,0.5,5.3-1.3,8.5-4.7
		c2.2-2.3,4.6-4.8,8-6.1c4.1-1.6,8.4-2.1,12.5-2.6c3.9-0.5,7.6-0.9,10.8-2.3c1.8-0.7,3.5-1.6,5.2-2.4c5.7-2.6,11.5-5.4,18.8-5.8
		c4.4-0.2,8.7-1.8,13.2-3.4c8.1-2.9,17.2-6.2,27.5-1.4c0.6,0.3,1.2,0.6,1.8,0.9c2.2,1.1,4.7,2.3,6.4,2.2c0.5,0,0.9-0.1,1.4-0.1
		c4.6-0.5,10.3-1.1,13.9,7c1.2,2.7,4.4,5.6,8.1,7.6c6,3.1,11,0.9,16.7-1.6c2.6-1.1,5.3-2.3,8.1-3c2.7-0.6,5.3-1.5,8-2.5
		c6-2.1,12.2-4.3,20-3.6c19.8,1.7,37.6,9,55.7,17.1c6.2,2.7,11.9,6.3,17.5,9.8c5.3,3.3,10.7,6.7,16.4,9.2c2.9,1.3,5.6,2.8,8.2,4.3
		c3,1.7,5.8,3.3,8.8,4.5c4.3,1.8,8.8,3.5,13.2,5.1c9.1,3.5,18.6,7.1,27.4,11.7c2.5,1.3,5,2.7,7.4,4.1c5.7,3.2,11.1,6.3,17,8.3
		l2.2,0.7l0,37.3c0,40.7,0,40.7,0.1,98.2l0,10c0,2-0.2,4-1.7,5.4C576.7,238.9,574.7,239.1,572.8,239.1z M289.9,232.7
		c94.5,0,189,0,282.8,0.1c0,0,0,0,0,0c0.3,0,0.5,0,0.7,0c0-0.2,0-0.4,0-0.7l0-10c-0.1-57.6-0.1-57.6-0.1-98.2l0-32.8
		c-5.7-2.2-10.9-5.1-16-8c-2.3-1.3-4.8-2.7-7.2-4c-8.5-4.4-17.8-8-26.7-11.4c-4.4-1.7-8.9-3.4-13.3-5.2c-3.4-1.4-6.5-3.2-9.5-4.9
		c-2.6-1.5-5-2.8-7.7-4c-6-2.7-11.6-6.2-17.1-9.6c-5.4-3.4-11-6.8-16.7-9.4c-18.2-8.1-34.8-14.9-53.6-16.5
		c-6.4-0.6-11.7,1.3-17.3,3.3c-2.8,1-5.6,2-8.6,2.7c-2.3,0.5-4.6,1.5-7,2.6c-6.3,2.8-13.5,5.9-22.2,1.4c-5.1-2.6-9.2-6.6-11-10.6
		c-1.7-3.9-2.9-3.7-7.4-3.2c-0.5,0.1-1,0.1-1.5,0.2c-3.5,0.3-6.9-1.3-9.9-2.8c-0.6-0.3-1.1-0.5-1.6-0.8c-7.8-3.7-15-1.1-22.6,1.7
		c-4.8,1.7-9.7,3.5-15,3.8c-6.1,0.3-11.1,2.7-16.5,5.2c-1.8,0.8-3.6,1.7-5.5,2.5c-4,1.7-8.3,2.2-12.5,2.7c-3.9,0.5-7.6,0.9-11,2.2
		c-2,0.8-3.8,2.6-5.6,4.5c-3.2,3.4-7.3,7.6-14.1,6.6c-6.1-0.9-14.8-3.2-19.7-11.7c-0.7-1.2-3.1-1.9-6.1-1.9c-8.5,0.2-13.5-4.7-18-9
		c-1.9-1.9-3.8-3.7-5.8-5c-9.8-6.3-19.8-6.6-31.8-5.2c-5,0.6-8.2,3.5-11.8,6.8c-4.2,3.7-8.9,8-16.9,9.4l-0.3,0.1l-0.3,0c0,0,0,0,0,0
		c-1.8,0-7.3,2.3-12.8,6.7c-2.9,2.2-3.4,6.5-1.4,10.5c8.4,16.7,0.9,30.5-7.5,41.8c-0.8,1.1-1.5,2.3-2.3,3.5
		c-3.1,5-6.9,11.2-17.1,11.9c-7.7,0.5-14.1,7.4-16.4,17.4c-1.3,5.9-6.7,7.4-11,8.5c-3,0.8-5.7,1.5-7.2,3.4c-0.3,0.4-0.6,0.7-0.9,1.1
		c-2.1,2.5-2.6,3.4-2.2,4.6c3.7,11.9-4.4,16.5-10.4,19.9c-1,0.6-2,1.1-2.9,1.7c-0.4,0.2-0.9,1.1-1.3,1.8c-0.9,1.5-2.4,4-5.3,4.7
		l0,24.6c0,8.5,0,8.5,0,13.2c0,4.2,0,12.2-0.1,33.3c0,0.3,0,0.5,0,0.7c0.2,0,0.4,0,0.7,0C100.9,232.7,195.4,232.7,289.9,232.7z"/>
</g>
</svg>
