<?xml version="1.0" encoding="utf-8"?>
<!-- Generator: Adobe Illustrator 20.1.0, SVG Export Plug-In . SVG Version: 6.00 Build 0)  -->
<svg version="1.1" id="Layer_1" xmlns="http://www.w3.org/2000/svg" xmlns:xlink="http://www.w3.org/1999/xlink" x="0px" y="0px"
	 viewBox="0 0 532 325" style="enable-background:new 0 0 532 325;" xml:space="preserve">
<style type="text/css">
	.st0{fill:#FEE464;}
	.st1{fill:#696969;}
	.st2{opacity:0.3;enable-background:new    ;}
	.st3{fill:#FF9500;}
	.st4{fill:#D5DEE9;}
	.st5{fill:#0CC0E3;}
	.st6{fill:#23C5E3;}
	.st7{fill:#89A387;}
	.st8{fill:#FFFFFF;}
	.st9{opacity:0.2;enable-background:new    ;}
	.st10{fill:#222222;}
	.st11{fill:#ADCA6F;}
</style>
<g>
	<g>
		<g>
			<circle class="st0" cx="203.8" cy="60" r="53"/>
			<path class="st1" d="M203.8,116.5c-31.2,0-56.5-25.3-56.5-56.5s25.3-56.5,56.5-56.5s56.5,25.3,56.5,56.5S235,116.5,203.8,116.5z
				 M203.8,10.5c-27.3,0-49.5,22.2-49.5,49.5s22.2,49.5,49.5,49.5s49.5-22.2,49.5-49.5S231.1,10.5,203.8,10.5z"/>
		</g>
		<g class="st2">
			<path class="st3" d="M203.8,7c-29.3,0-53,23.7-53,53s23.7,53,53,53V7z"/>
			<path class="st1" d="M207.3,116.5h-3.5c-31.2,0-56.5-25.3-56.5-56.5s25.3-56.5,56.5-56.5h3.5V116.5z M200.3,10.6
				c-25.7,1.8-46,23.3-46,49.4s20.3,47.6,46,49.4V10.6z"/>
		</g>
	</g>
	<g>
		<g>
			<path class="st4" d="M431.5,67.3h-74c-13.3,0-24.1,10.8-24.1,24.1s10.8,24.1,24.1,24.1h74c13.3,0,24.1-10.8,24.1-24.1
				S444.8,67.3,431.5,67.3z"/>
			<path class="st1" d="M431.5,119h-74c-15.2,0-27.6-12.4-27.6-27.6s12.4-27.6,27.6-27.6h74c15.2,0,27.6,12.4,27.6,27.6
				S446.7,119,431.5,119z M357.5,70.8c-11.4,0-20.6,9.2-20.6,20.6s9.2,20.6,20.6,20.6h74c11.4,0,20.6-9.2,20.6-20.6
				s-9.2-20.6-20.6-20.6H357.5z"/>
		</g>
		<g class="st2">
			<path class="st5" d="M357.5,67.3c-13.3,0-24.1,10.8-24.1,24.1s10.8,24.1,24.1,24.1h37V67.3H357.5L357.5,67.3z"/>
			<path class="st1" d="M398,119h-40.5c-15.2,0-27.6-12.4-27.6-27.6s12.4-27.6,27.6-27.6H398V119z M357.5,70.8
				c-11.4,0-20.6,9.2-20.6,20.6s9.2,20.6,20.6,20.6H391V70.8H357.5z"/>
		</g>
	</g>
	<g>
		<g>
			<path class="st4" d="M148.9,107.9h-74c-13.3,0-24.1,10.8-24.1,24.1s10.8,24.1,24.1,24.1h74c13.3,0,24.1-10.8,24.1-24.1
				S162.2,107.9,148.9,107.9z"/>
			<path class="st1" d="M148.9,159.6h-74c-15.2,0-27.6-12.4-27.6-27.6s12.4-27.6,27.6-27.6h74c15.2,0,27.6,12.4,27.6,27.6
				S164.1,159.6,148.9,159.6z M74.9,111.4c-11.4,0-20.6,9.2-20.6,20.6s9.2,20.6,20.6,20.6h74c11.4,0,20.6-9.2,20.6-20.6
				s-9.2-20.6-20.6-20.6H74.9z"/>
		</g>
		<g class="st2">
			<path class="st6" d="M74.9,107.9c-13.3,0-24.1,10.8-24.1,24.1s10.8,24.1,24.1,24.1h37v-48.3L74.9,107.9L74.9,107.9z"/>
			<path class="st1" d="M115.4,159.6H74.9c-15.2,0-27.6-12.4-27.6-27.6c0-15.2,12.4-27.6,27.6-27.6l40.5-0.1V159.6z M74.9,111.4
				c-11.4,0-20.6,9.2-20.6,20.6s9.2,20.6,20.6,20.6h33.5v-41.3L74.9,111.4z"/>
		</g>
	</g>
	<g>
		<g>
			<path class="st7" d="M136.3,317.2L273.7,90.5c27.8-41.7,73.2-41.7,100.9,0L520,317.2H136.3z"/>
			<path class="st1" d="M526.4,320.7H130.1L270.8,88.6c14.1-21.2,33.1-32.8,53.4-32.8c0,0,0,0,0,0c20.3,0,39.2,11.7,53.3,32.8
				L526.4,320.7z M142.5,313.7h371.1L371.7,92.4c-12.7-19.1-29.5-29.6-47.4-29.7c0,0,0,0,0,0c-17.9,0-34.8,10.5-47.5,29.7
				L142.5,313.7z"/>
		</g>
		<g>
			<path class="st8" d="M374.6,90.5c-27.8-41.7-73.2-41.7-100.9,0l-18,29.7c17.1,19.2,41.9,31.4,69.7,31.4
				c27.3,0,51.8-11.8,68.8-30.5L374.6,90.5z"/>
			<path class="st1" d="M325.4,155.1c-27.5,0-53.9-11.9-72.3-32.6l-1.7-1.9l19.4-32c14.1-21.2,33-32.8,53.3-32.8c0,0,0,0,0,0
				c20.3,0,39.3,11.7,53.4,32.8l0,0.1l21,32.9l-1.8,2C378.5,143.6,352.5,155.1,325.4,155.1z M260.1,119.8c17,18,40.7,28.3,65.3,28.3
				c24.2,0,47.5-10,64.4-27.4l-18.1-28.3c-12.8-19.1-29.7-29.7-47.6-29.7c0,0,0,0,0,0c-17.9,0-34.7,10.5-47.4,29.7L260.1,119.8z"/>
		</g>
		<g class="st9">
			<path class="st10" d="M273.6,90.4L136.2,317.2h189.1v-258C306.6,58.7,287.8,69.1,273.6,90.4z"/>
			<path class="st1" d="M328.8,320.7H130L270.7,88.5c14.5-21.7,33.9-33.3,54.7-32.8l3.4,0.1V320.7z M142.4,313.7h179.4v-251
				c-17,0.8-33,11.2-45.2,29.5L142.4,313.7z"/>
		</g>
	</g>
	<g>
		<g>
			<path class="st11" d="M8,317.2l119.8-197.8c24.2-36.4,63.8-36.4,88,0l126.8,197.8H8z"/>
			<path class="st1" d="M349,320.7H1.8l123.1-203.2c12.4-18.6,29-28.9,46.9-28.9c0,0,0,0,0,0c17.9,0,34.5,10.3,46.9,28.9L349,320.7z
				 M14.2,313.7h322L212.9,121.3c-11-16.5-25.6-25.7-41.1-25.7c-15.4,0-30,9.1-41,25.7L14.2,313.7z"/>
		</g>
		<g>
			<path class="st8" d="M215.8,119.5c-24.2-36.4-63.8-36.4-88,0l-15.9,26.3c14.9,16.9,36.7,27.6,61,27.6c23.9,0,45.4-10.4,60.3-26.8
				L215.8,119.5z"/>
			<path class="st1" d="M172.9,176.9c-24.3,0-47.5-10.5-63.6-28.8l-1.7-1.9l17.3-28.6c12.4-18.6,29-28.9,46.9-28.9c0,0,0,0,0,0
				c17.9,0,34.5,10.3,46.9,28.9l0,0l18.9,29.4l-1.8,2C219.7,166.7,196.7,176.9,172.9,176.9z M116.2,145.4
				c14.7,15.6,35.2,24.5,56.7,24.5c21,0,41.2-8.6,55.9-23.7l-15.9-24.8c-11-16.6-25.6-25.7-41.1-25.7c-15.4,0-30,9.1-41,25.7
				L116.2,145.4z"/>
		</g>
		<g class="st9">
			<path class="st10" d="M127.8,119.5L8,317.2h164.9v-225C156.6,91.8,140.2,100.9,127.8,119.5z"/>
			<path class="st1" d="M176.4,320.7H1.8l123.1-203.1c12.7-19.1,29.8-29.3,48.1-28.9l3.4,0.1V320.7z M14.2,313.7h155.2V95.8
				c-14.5,0.9-28.1,9.9-38.6,25.6L14.2,313.7z"/>
		</g>
	</g>
	<g>
		<g>
			<path class="st4" d="M106.1,193.4h-74C18.8,193.4,8,204.3,8,217.6s10.8,24.1,24.1,24.1h74c13.3,0,24.1-10.8,24.1-24.1
				C130.3,204.3,119.5,193.4,106.1,193.4z"/>
			<path class="st1" d="M106.1,245.2h-74c-15.2,0-27.6-12.4-27.6-27.6c0-15.3,12.4-27.7,27.6-27.7h74c7.4,0,14.4,2.9,19.6,8.2
				c5.2,5.2,8,12.2,8,19.6C133.7,232.8,121.3,245.2,106.1,245.2z M32.1,196.9c-11.4,0-20.6,9.3-20.6,20.7c0,11.4,9.2,20.6,20.6,20.6
				h74c11.4,0,20.6-9.2,20.6-20.6c0-5.5-2.1-10.7-6-14.6c-3.9-3.9-9.1-6.1-14.6-6.1H32.1z"/>
		</g>
		<g class="st2">
			<path class="st6" d="M32.1,193.4C18.8,193.4,8,204.3,8,217.6s10.8,24.1,24.1,24.1h37v-48.3L32.1,193.4L32.1,193.4z"/>
			<path class="st1" d="M72.6,245.2H32.1c-15.2,0-27.6-12.4-27.6-27.6c0-15.3,12.4-27.7,27.6-27.7h40.5V245.2z M32.1,196.9
				c-11.4,0-20.6,9.3-20.6,20.7c0,11.4,9.2,20.6,20.6,20.6h33.5v-41.3H32.1z"/>
		</g>
	</g>
</g>
</svg>
