<svg xmlns="http://www.w3.org/2000/svg" xmlns:xlink="http://www.w3.org/1999/xlink" version="1.1" x="0px" y="0px" viewBox="0 0 100 125" enable-background="new 0 0 100 100" xml:space="preserve"><path fill="#000000" d="M8.097,79.143h22.95V46.27H8.097V79.143z M17.6,54.393h3.947v8.315H17.6V54.393z M38.29,29.786l2.624,15.881  h18.169l2.63-15.881h-3.701v-1.047h1.836c0-5.44-4.412-9.849-9.849-9.849c-5.44,0-9.845,4.409-9.845,9.849h1.833v1.047H38.29z   M50,31.642c2.97,0,5.378,2.408,5.378,5.378c0,2.97-2.408,5.377-5.378,5.377s-5.378-2.408-5.378-5.377  C44.622,34.049,47.03,31.642,50,31.642z M6.521,41.173h24.526v2.618H6.521V41.173z M60.551,47.395H39.449l-2.601-15.753h-3.431  v47.501h4.617v1.968h23.933v-1.968h4.617V31.642h-3.431L60.551,47.395z M54.2,76.375h-8.4V63.464h8.4V76.375z M93.479,41.173v2.618  H68.948v-2.618H93.479z M68.948,79.143H91.9V46.27H68.948V79.143z M78.457,54.393h3.94v8.315h-3.94V54.393z M53.354,37.025  c0,0.276-0.224,0.5-0.5,0.5h-2.852c-0.276,0-0.5-0.224-0.5-0.5v-4.329c0-0.276,0.224-0.5,0.5-0.5s0.5,0.224,0.5,0.5v3.829h2.352  C53.13,36.525,53.354,36.749,53.354,37.025z"/><text x="0" y="115" fill="#000000" font-size="5px" font-weight="bold" font-family="'Helvetica Neue', Helvetica, Arial-Unicode, Arial, Sans-serif">Created by Martin Smith</text><text x="0" y="120" fill="#000000" font-size="5px" font-weight="bold" font-family="'Helvetica Neue', Helvetica, Arial-Unicode, Arial, Sans-serif">from the Noun Project</text></svg>