<?xml version="1.0" encoding="utf-8"?>
<!-- Generator: Adobe Illustrator 20.1.0, SVG Export Plug-In . SVG Version: 6.00 Build 0)  -->
<svg version="1.1" id="Capa_1" xmlns="http://www.w3.org/2000/svg" xmlns:xlink="http://www.w3.org/1999/xlink" x="0px" y="0px"
	 viewBox="0 0 527 295" style="enable-background:new 0 0 527 295;" xml:space="preserve">
<style type="text/css">
	.st0{fill:#7F682C;}
	.st1{fill:#4D4D4D;}
	.st2{enable-background:new    ;}
	.st3{fill:none;stroke:#000000;stroke-miterlimit:10;}
</style>
<g>
	<g>
		<path class="st0" d="M226.6,189.9c-1.1,3.6-3.9,6.8-8.8,5.4c-17.4-5.2-44.9-8.3-61.7-5.7c-6.1,1-8.7-1.7-10.5-8.6
			c-4.5-17.2-11.9-38-8.2-63.7c8.4-57.7,35.1-72,54.2-69.6C210.8,50,258.3,82.2,226.6,189.9z M144.9,211.4c0,0-4.1,9.8-7.2,26.1
			c-5.1,26.9-0.2,46.1,27.8,52c23.6,4.9,40.1-10.8,45.2-37.7c3.1-16.2,4-26.7,4-26.7L144.9,211.4z"/>
		<path class="st1" d="M173.7,293.9c-2.9,0-5.9-0.3-9-1c-35.5-7.4-34.4-35.5-30.5-56.1c3.1-16.4,7.3-26.3,7.4-26.8l1.1-2.6
			l75.5,14.8l-0.3,3.1c0,0.4-0.9,10.8-4,27.1c-3.1,16.4-10.2,28.7-20.4,35.5C187.8,291.9,181,293.9,173.7,293.9z M147.1,215.4
			c-1.4,3.9-4,11.8-6,22.7c-5.5,28.8,2,43.1,25,47.9c9,1.9,16.9,0.6,23.6-3.9c8.7-5.8,14.7-16.5,17.4-31c2-10.8,3.1-19,3.6-23.2
			L147.1,215.4z M148.1,212.8L148.1,212.8L148.1,212.8z M220,199.2c-1,0-2.1-0.2-3.2-0.5c-15.8-4.7-43.3-8.2-60.1-5.6
			c-9.8,1.5-12.9-5.2-14.4-11.2c-0.6-2.4-1.3-4.8-2-7.3c-4.3-15.6-9.6-34.9-6.3-57.9c8.4-57.8,35.5-75.4,58.1-72.6
			c9.1,1.1,23.5,8.2,34.2,24.5c12.5,19,23.3,55.7,3.7,122.2l0,0C228.4,196.1,224.6,199.2,220,199.2z M170,185.2
			c16.5,0,35.9,3,48.7,6.8c0.8,0.2,3.3,1,4.5-3c18.8-63.9,8.9-98.6-2.8-116.4c-9.4-14.3-21.6-20.5-29.2-21.4
			c-19.3-2.4-42.7,13.8-50.3,66.6c-3.1,21.5,1.8,39.3,6.1,55c0.7,2.5,1.4,5,2,7.4c1.7,6.5,3.4,6.5,6.6,6
			C159.9,185.5,164.8,185.2,170,185.2z"/>
	</g>
	<g>
		<path class="st0" d="M65.3,3.8c20.6,0.3,46.5,19.3,46.7,81.3c0.1,27.7-10.8,48.5-18.1,65.9c-2.9,7-6.1,9.4-12.4,7.5
			c-17.1-5.2-46.6-6-65.7-3.2c-5.3,0.8-7.9-3.1-8.5-7C-9.9,30.2,44.8,3.5,65.3,3.8z M13.6,186c0,0-0.6,11.1,0.2,28.7
			c1.3,29.1,16.4,48.1,42,46.4c30.3-1.9,38.3-21.5,36.9-50.6C91.9,193,89,182.1,89,182.1L13.6,186z"/>
		<path class="st1" d="M52.8,264.7c-10.3,0-19.3-3.3-26.3-9.6c-9.7-8.7-15.3-22.6-16.1-40.3c-0.7-17.5-0.2-28.6-0.2-29l0.2-3.2
			l81.3-4.3l0.7,2.7c0.1,0.5,3,11.5,3.8,29.2c1.1,22.1-1.9,51.8-40.2,54.2C54.9,264.7,53.8,264.7,52.8,264.7z M17,189.3
			c-0.1,4.5-0.2,13.4,0.3,25.2c0.7,15.7,5.5,27.9,13.8,35.4c6.4,5.7,14.6,8.3,24.4,7.7c25.1-1.6,35.2-15.6,33.7-46.9
			c-0.6-12-2.1-20.8-3-25L17,189.3z M85.2,162.6c-1.4,0-3-0.2-4.7-0.8c-17.3-5.2-46.8-5.6-64.2-3c-6.4,1-11.4-3-12.5-9.9
			C-6.8,76,10,39.1,25.9,20.9C39.5,5.5,55.7,0.2,65.4,0.3l0,0c24.1,0.4,49.9,22.9,50.1,84.8c0.1,24.7-8.4,44.3-15.3,60
			c-1.1,2.5-2.1,4.8-3.1,7.2C95.1,157.3,91.9,162.6,85.2,162.6z M40.6,150.2c14.8,0,30.6,1.5,41.9,4.9c3.6,1.1,5.4,0.9,8.1-5.5
			c1-2.4,2-4.8,3.1-7.3c6.9-16,14.8-34,14.7-57.2C108.3,28.3,86.1,7.7,65.3,7.3c-8.2-0.2-22,4.6-34.1,18.2
			c-15,17-30.7,52.1-20.4,122.3c0.3,2.1,1.4,4.5,4.5,4C22.5,150.8,31.4,150.2,40.6,150.2z"/>
	</g>
</g>
<g class="st2">
	<path class="st1" d="M359.6,69.3v9.1c-7.3-0.6-15.3-0.7-33.9-0.7v15.9c17.1,0,32.4-0.3,43.6-1v9.6c-11.9-0.7-26-1.1-47.8-1.1
		s-37,0.4-48.9,1.1v-9.7c5.9,0.7,11.8,1,18.9,1.1V77.9c0-4.7-0.4-9.9-0.8-12.3c3.4,0.6,7.9,0.8,11.1,0.7c1.6-0.1,1.7,0.7,0.4,1.4
		c-1.2,0.8-1.8,1.7-1.8,3.3v22.7h16.2V68.1c0-4.1-0.3-9.6-0.8-12.2c3.7,0.4,8.3,0.8,10.4,0.7c2.1-0.1,2.2,0.9,1,1.6
		c-1.1,0.6-1.7,1.6-1.7,3.1V70C344.3,70,352.3,69.9,359.6,69.3z M316.2,118.2c0-4.9-0.2-9.6-0.8-12.6c3.7,0.3,7.6,0.4,11.1,0.4
		c2,0,2.2,0.9,0.9,1.8c-1.7,1.2-2.2,2.2-2.2,4.3v26c10.8-7.1,19.7-18.9,25.4-30.4c2.9,2.8,7.2,5.3,9.3,6c2,0.7,2,1.4,0.1,2.1
		c-0.9,0.3-3.2,2.7-13.7,15.7c-12.6,15.3-35.9,24.4-66.2,27.3c-0.3-3-1.6-6.6-4.1-10c14.7,0,30.1-2.3,40.1-6V118.2z M286.6,136.7
		c-2.4-2.4-5.7-4.6-9-5.9c6.7-4,13.9-13.3,17.1-21c3.7,2.4,6.3,3.6,9.7,4.1c1.7,0.3,1.9,1,0.4,1.7
		C303.3,116.2,296.6,123.9,286.6,136.7z"/>
	<path class="st1" d="M398,88.5c-5.4,0.1-9.3,0.4-12.7,1v-10c3.3,0.6,7.2,0.8,12.7,0.9c0-10.6-0.7-18.2-1.6-21.6
		c3.4,0.3,7.4,0.4,10.6,0.2c3.3-0.2,3.6,0.6,1.1,2.3c-1.4,1.1-1.7,2.3-1.7,5v14c4.6-0.1,8.1-0.3,11.1-0.9v10
		c-3-0.6-6.6-0.8-11.1-0.9v19.7c3.9-1.1,7.8-2.4,11.9-4c-0.8,3.4-0.6,6.4,0.3,9.1c-4.4,1-8.6,2-12.2,3.2V146
		c0,7.6-1.6,9.1-15.8,11.3c-0.4-3.7-1.4-6.9-3.6-10.8c9.7,0.4,10.9-0.4,10.9-4.1v-22.8c-4.8,1.9-8.7,3.9-11.8,6
		c-0.1-4.2-1.2-9.2-2.4-12c5.2-1,9.8-2,14.2-3V88.5z M475.8,112.5v9.6c-3.9-0.8-10.3-1-23.2-1v21.4c10.9,1.4,19.9,1.8,30.6,0.6
		c-2.6,3.7-3,6.4-3,10.7c-10.2,0.3-23.9-0.6-31.6-2.1c-8.7-1.8-15.9-6.2-21.4-13.3c-2.6,5.9-5.7,11.2-10,16.4
		c-1.3-2.1-5.6-4.9-8.4-5.7c10-9.9,14.4-20,17-41.3c2.6,0.7,6.2,1.2,9.1,1.3c1.7,0.1,1.9,0.6,0.3,2.3c-1,1.2-2.6,5.6-5.1,18.1
		c3.7,6.1,8.8,9.9,13.8,11.6V98.5c-9,0.1-14.8,0.4-19.9,1c0.4-5,0.7-11.7,0.7-18.6c0-6.6-0.2-13.9-0.7-18.2c5.6,0.7,12.8,1,24.3,1
		c11.6,0,18.1-0.3,23.9-1c-0.4,4.4-0.8,11.4-0.8,18.1c0,6.8,0.2,13.3,0.8,18.7c-5.1-0.7-10.7-1-19.6-1v15
		C465.6,113.5,472.2,113.3,475.8,112.5z M433.2,90.9h29.6V71.3h-29.6V90.9z"/>
</g>
<g class="st2">
	<path class="st1" d="M359.6,69.3v9.1c-7.3-0.6-15.3-0.7-33.9-0.7v15.9c17.1,0,32.4-0.3,43.6-1v9.6c-11.9-0.7-26-1.1-47.8-1.1
		s-37,0.4-48.9,1.1v-9.7c5.9,0.7,11.8,1,18.9,1.1V77.9c0-4.7-0.4-9.9-0.8-12.3c3.4,0.6,7.9,0.8,11.1,0.7c1.6-0.1,1.7,0.7,0.4,1.4
		c-1.2,0.8-1.8,1.7-1.8,3.3v22.7h16.2V68.1c0-4.1-0.3-9.6-0.8-12.2c3.7,0.4,8.3,0.8,10.4,0.7c2.1-0.1,2.2,0.9,1,1.6
		c-1.1,0.6-1.7,1.6-1.7,3.1V70C344.3,70,352.3,69.9,359.6,69.3z M316.2,118.2c0-4.9-0.2-9.6-0.8-12.6c3.7,0.3,7.6,0.4,11.1,0.4
		c2,0,2.2,0.9,0.9,1.8c-1.7,1.2-2.2,2.2-2.2,4.3v26c10.8-7.1,19.7-18.9,25.4-30.4c2.9,2.8,7.2,5.3,9.3,6c2,0.7,2,1.4,0.1,2.1
		c-0.9,0.3-3.2,2.7-13.7,15.7c-12.6,15.3-35.9,24.4-66.2,27.3c-0.3-3-1.6-6.6-4.1-10c14.7,0,30.1-2.3,40.1-6V118.2z M286.6,136.7
		c-2.4-2.4-5.7-4.6-9-5.9c6.7-4,13.9-13.3,17.1-21c3.7,2.4,6.3,3.6,9.7,4.1c1.7,0.3,1.9,1,0.4,1.7
		C303.3,116.2,296.6,123.9,286.6,136.7z"/>
	<path class="st1" d="M398,88.5c-5.4,0.1-9.3,0.4-12.7,1v-10c3.3,0.6,7.2,0.8,12.7,0.9c0-10.6-0.7-18.2-1.6-21.6
		c3.4,0.3,7.4,0.4,10.6,0.2c3.3-0.2,3.6,0.6,1.1,2.3c-1.4,1.1-1.7,2.3-1.7,5v14c4.6-0.1,8.1-0.3,11.1-0.9v10
		c-3-0.6-6.6-0.8-11.1-0.9v19.7c3.9-1.1,7.8-2.4,11.9-4c-0.8,3.4-0.6,6.4,0.3,9.1c-4.4,1-8.6,2-12.2,3.2V146
		c0,7.6-1.6,9.1-15.8,11.3c-0.4-3.7-1.4-6.9-3.6-10.8c9.7,0.4,10.9-0.4,10.9-4.1v-22.8c-4.8,1.9-8.7,3.9-11.8,6
		c-0.1-4.2-1.2-9.2-2.4-12c5.2-1,9.8-2,14.2-3V88.5z M475.8,112.5v9.6c-3.9-0.8-10.3-1-23.2-1v21.4c10.9,1.4,19.9,1.8,30.6,0.6
		c-2.6,3.7-3,6.4-3,10.7c-10.2,0.3-23.9-0.6-31.6-2.1c-8.7-1.8-15.9-6.2-21.4-13.3c-2.6,5.9-5.7,11.2-10,16.4
		c-1.3-2.1-5.6-4.9-8.4-5.7c10-9.9,14.4-20,17-41.3c2.6,0.7,6.2,1.2,9.1,1.3c1.7,0.1,1.9,0.6,0.3,2.3c-1,1.2-2.6,5.6-5.1,18.1
		c3.7,6.1,8.8,9.9,13.8,11.6V98.5c-9,0.1-14.8,0.4-19.9,1c0.4-5,0.7-11.7,0.7-18.6c0-6.6-0.2-13.9-0.7-18.2c5.6,0.7,12.8,1,24.3,1
		c11.6,0,18.1-0.3,23.9-1c-0.4,4.4-0.8,11.4-0.8,18.1c0,6.8,0.2,13.3,0.8,18.7c-5.1-0.7-10.7-1-19.6-1v15
		C465.6,113.5,472.2,113.3,475.8,112.5z M433.2,90.9h29.6V71.3h-29.6V90.9z"/>
</g>
<g class="st2">
	<path class="st3" d="M359.6,69.3v9.1c-7.3-0.6-15.3-0.7-33.9-0.7v15.9c17.1,0,32.4-0.3,43.6-1v9.6c-11.9-0.7-26-1.1-47.8-1.1
		s-37,0.4-48.9,1.1v-9.7c5.9,0.7,11.8,1,18.9,1.1V77.9c0-4.7-0.4-9.9-0.8-12.3c3.4,0.6,7.9,0.8,11.1,0.7c1.6-0.1,1.7,0.7,0.4,1.4
		c-1.2,0.8-1.8,1.7-1.8,3.3v22.7h16.2V68.1c0-4.1-0.3-9.6-0.8-12.2c3.7,0.4,8.3,0.8,10.4,0.7c2.1-0.1,2.2,0.9,1,1.6
		c-1.1,0.6-1.7,1.6-1.7,3.1V70C344.3,70,352.3,69.9,359.6,69.3z M316.2,118.2c0-4.9-0.2-9.6-0.8-12.6c3.7,0.3,7.6,0.4,11.1,0.4
		c2,0,2.2,0.9,0.9,1.8c-1.7,1.2-2.2,2.2-2.2,4.3v26c10.8-7.1,19.7-18.9,25.4-30.4c2.9,2.8,7.2,5.3,9.3,6c2,0.7,2,1.4,0.1,2.1
		c-0.9,0.3-3.2,2.7-13.7,15.7c-12.6,15.3-35.9,24.4-66.2,27.3c-0.3-3-1.6-6.6-4.1-10c14.7,0,30.1-2.3,40.1-6V118.2z M286.6,136.7
		c-2.4-2.4-5.7-4.6-9-5.9c6.7-4,13.9-13.3,17.1-21c3.7,2.4,6.3,3.6,9.7,4.1c1.7,0.3,1.9,1,0.4,1.7
		C303.3,116.2,296.6,123.9,286.6,136.7z"/>
	<path class="st3" d="M398,88.5c-5.4,0.1-9.3,0.4-12.7,1v-10c3.3,0.6,7.2,0.8,12.7,0.9c0-10.6-0.7-18.2-1.6-21.6
		c3.4,0.3,7.4,0.4,10.6,0.2c3.3-0.2,3.6,0.6,1.1,2.3c-1.4,1.1-1.7,2.3-1.7,5v14c4.6-0.1,8.1-0.3,11.1-0.9v10
		c-3-0.6-6.6-0.8-11.1-0.9v19.7c3.9-1.1,7.8-2.4,11.9-4c-0.8,3.4-0.6,6.4,0.3,9.1c-4.4,1-8.6,2-12.2,3.2V146
		c0,7.6-1.6,9.1-15.8,11.3c-0.4-3.7-1.4-6.9-3.6-10.8c9.7,0.4,10.9-0.4,10.9-4.1v-22.8c-4.8,1.9-8.7,3.9-11.8,6
		c-0.1-4.2-1.2-9.2-2.4-12c5.2-1,9.8-2,14.2-3V88.5z M475.8,112.5v9.6c-3.9-0.8-10.3-1-23.2-1v21.4c10.9,1.4,19.9,1.8,30.6,0.6
		c-2.6,3.7-3,6.4-3,10.7c-10.2,0.3-23.9-0.6-31.6-2.1c-8.7-1.8-15.9-6.2-21.4-13.3c-2.6,5.9-5.7,11.2-10,16.4
		c-1.3-2.1-5.6-4.9-8.4-5.7c10-9.9,14.4-20,17-41.3c2.6,0.7,6.2,1.2,9.1,1.3c1.7,0.1,1.9,0.6,0.3,2.3c-1,1.2-2.6,5.6-5.1,18.1
		c3.7,6.1,8.8,9.9,13.8,11.6V98.5c-9,0.1-14.8,0.4-19.9,1c0.4-5,0.7-11.7,0.7-18.6c0-6.6-0.2-13.9-0.7-18.2c5.6,0.7,12.8,1,24.3,1
		c11.6,0,18.1-0.3,23.9-1c-0.4,4.4-0.8,11.4-0.8,18.1c0,6.8,0.2,13.3,0.8,18.7c-5.1-0.7-10.7-1-19.6-1v15
		C465.6,113.5,472.2,113.3,475.8,112.5z M433.2,90.9h29.6V71.3h-29.6V90.9z"/>
</g>
<g class="st2">
	<path class="st1" d="M277.3,202.5c0,1.8,0.6,3.6,1.9,5.5c1.2,1.9,4.4,4.6,9.5,8.3c9.9,7,16.4,12.6,19.7,16.9
		c3.3,4.3,4.9,8.8,4.9,13.7c0,6.9-2.7,12.2-8,16c-5.3,3.8-11.1,5.7-17.5,5.7c-4.5,0-9.1-0.9-13.8-2.8s-7.1-3.8-7.1-5.9
		c0-0.5,0.1-1.5,0.2-2.8s0.2-3.1,0.2-5.2c0-0.7-0.1-1.6-0.2-2.6c-0.1-1-0.2-1.7-0.2-2c0-1.3,0.8-2,2.4-2c1.8,0,2.7,1.3,3,4
		c0.4,4.4,2,7.8,4.7,10.3c2.7,2.5,6.4,3.7,11.1,3.7c4.8,0,8.7-1.3,11.9-4c3.1-2.7,4.7-6.2,4.7-10.5c0-2.6-1.1-5.4-3.2-8.3
		c-2.1-2.9-7.6-7.6-16.6-13.9c-3.7-2.6-6.6-4.8-8.7-6.6c-2.1-1.8-3.9-4-5.3-6.5c-1.4-2.5-2.1-5.3-2.1-8.5c0-5.2,2.3-9.5,7-12.9
		c4.7-3.4,10.1-5.1,16.2-5.1c3.5,0,7.2,0.9,11.1,2.6c4,1.7,5.9,3.7,5.9,6c0,0.3,0,0.8-0.1,1.5s-0.1,1.7-0.1,3.1
		c0,0.4,0.1,1.1,0.2,2.1c0,2.4-0.8,3.6-2.5,3.6c-0.6,0-1.2-0.3-1.7-0.8c-0.6-0.6-0.9-1.2-0.9-1.8c0-3.5-1.2-6.2-3.6-8.1
		c-2.4-1.9-5.3-2.8-8.8-2.8c-3.9,0-7.3,1.1-10.1,3.3C278.7,197.5,277.3,199.9,277.3,202.5z"/>
	<path class="st1" d="M361.5,188c1.2,0,2.2,1.3,3,3.9c0.8,2.6,1.1,5,1.1,7.2c0,2.2-0.7,3.3-2.1,3.3c-0.5,0-1-0.2-1.4-0.5
		c-0.4-0.3-1-1.5-1.7-3.4c-0.7-2-1.8-3.3-3.3-4c-1.5-0.7-3.1-1.1-4.8-1.1c-2.5,0-4.2,0.6-5.3,1.7c-1.1,1.1-1.6,3-1.6,5.5v57.5
		c0,0.9,0.3,1.6,0.8,2.3c0.5,0.7,1.6,1.2,3.3,1.7c1.7,0.5,2.7,0.9,3,1.3c0.4,0.4,0.5,0.8,0.5,1.3c0,1.9-1,2.9-3,2.9
		c-1.1,0-2.7-0.2-4.8-0.5c-2.1-0.3-3.6-0.5-4.7-0.5c-0.9,0-2.3,0.1-4.1,0.4s-3.2,0.4-4.1,0.4c-1.1,0-2.1-0.3-2.9-0.8
		c-0.8-0.5-1.2-1.2-1.2-2.1c0-0.4,0.1-0.8,0.4-1.2c0.3-0.3,1.2-0.8,2.9-1.3c1.6-0.5,2.7-1.2,3.3-2.3c0.6-1,0.8-2.2,0.8-3.4v-58.1
		c0-3.5-2.4-5.3-7.1-5.3c-3.1,0-5.2,0.7-6.5,2.1c-0.8,0.8-1.4,2-1.7,3.7c-0.4,1.7-0.7,2.6-1.1,2.9c-0.4,0.3-0.9,0.5-1.4,0.5
		c-0.6,0-1.1-0.2-1.7-0.5c-0.5-0.3-0.8-0.7-0.8-1.2c0-3.9,0.3-7,1-9.3c0.7-2.2,1.7-3.3,3-3.3H361.5z"/>
	<path class="st1" d="M410.3,262.5c1.8,0,3.3-0.5,4.2-1.5c1-1,1.4-2.2,1.4-3.7c0-1.4,0.3-2.5,0.9-3.3c0.6-0.8,1.3-1.2,2.2-1.2
		s1.5,0.4,2.1,1.1c0.6,0.8,0.8,1.8,0.8,3s0.1,2.6,0.2,4.1s0.2,2.5,0.2,3c0,1.5-0.2,2.5-0.6,2.9c-0.4,0.5-1.5,0.7-3.2,0.7h-43.9
		c-3.1,0-5.2-0.2-6.3-0.7s-1.7-1.2-1.7-2.1c0-1.5,1-2.2,3.1-2.2c2.6,0,4.4-0.4,5.2-1.3c0.8-0.8,1.2-2.2,1.2-4v-49.6
		c0-5.4-0.1-8.9-0.3-10.6c-0.2-1.7-0.6-2.8-1.4-3.3c-0.7-0.5-2.2-0.7-4.3-0.7c-1.3,0-2.3-0.2-3-0.7c-0.7-0.5-1.1-1.1-1.1-1.9
		c0-0.7,0.3-1.3,0.9-1.8c0.6-0.5,1.4-0.8,2.3-0.8h41.8c1.7,0,2.7,0.3,3.3,1c0.5,0.7,0.9,1.7,1.1,3c0.2,1.3,0.4,3.5,0.4,6.6
		c0,1.4-0.6,2.1-1.8,2.1c-0.7,0-1.3-0.2-1.8-0.6c-0.5-0.4-1.1-1.5-1.7-3.2c-0.6-1.7-1.3-2.8-2-3.3c-0.7-0.5-1.4-0.7-2.3-0.7h-14.9
		c-2.5,0-4.1,0.4-4.7,1.1c-0.7,0.7-1,1.8-1,3.2v11.5c0,2.7,0.4,4.5,1.1,5.3c0.7,0.9,2.2,1.3,4.4,1.3h14.5c1.2,0,2.1-0.5,2.7-1.4
		c0.6-1,0.9-2,0.9-3.2c0-0.6,0.3-1.1,0.8-1.5c0.5-0.4,1.1-0.6,1.8-0.6c0.7,0,1.3,0.2,1.8,0.7c0.5,0.5,0.7,1.1,0.7,2
		c0,0.8-0.1,1.8-0.4,3.3c-0.2,1.4-0.4,2.6-0.4,3.5c0,1.4,0.2,2.8,0.5,4.3c0.3,1.5,0.5,2.4,0.5,2.8c0,0.8-0.3,1.5-0.8,2.1
		c-0.5,0.5-1.2,0.8-1.9,0.8c-0.8,0-1.4-0.3-1.9-1c-0.5-0.7-0.8-1.6-0.8-2.7c0-1.4-0.4-2.4-1.1-2.9s-1.9-0.9-3.6-0.9h-14.4
		c-1.3,0-2.4,0.3-3.2,0.8c-0.8,0.5-1.3,1.3-1.3,2.3V258c0,1.8,0.5,3,1.4,3.6c0.9,0.6,2.5,0.9,4.8,0.9H410.3z"/>
	<path class="st1" d="M432.1,197.5c0-2.9-2-4.3-5.9-4.3c-2.5,0-3.7-0.8-3.7-2.4c0-1.6,1.2-2.3,3.7-2.3c1.4,0,3,0.2,4.7,0.5
		s3.2,0.5,4.4,0.5c1,0,2.8-0.2,5.3-0.6c2.5-0.4,5.5-0.6,9-0.6c8.5,0,15.1,2,19.7,5.9c4.6,3.9,6.9,8.6,6.9,14c0,4.3-1.1,7.5-3.2,9.8
		c-2.1,2.3-5.1,4.3-8.8,6.1c-3.8,1.8-8.7,2.7-14.7,2.7c-3.5,0-5.3-1-5.3-3.1c0-0.5,0.2-1,0.7-1.3c0.5-0.3,1.2-0.5,2-0.5
		c0.2,0,0.8,0,1.8,0.1c1,0.1,1.9,0.1,2.8,0.1c3.9,0,7.2-1.2,9.7-3.6c2.6-2.4,3.8-5.8,3.8-10.1c0-4.1-1.6-7.7-4.7-10.8
		c-3.2-3.1-7.4-4.7-12.7-4.7c-1.9,0-3.3,0.3-4.1,0.8c-0.8,0.5-1.3,1.3-1.5,2.3c-0.2,1-0.3,2.6-0.3,4.8V258c0,2.8,1.8,4.2,5.5,4.2
		c1.8,0,3,0.2,3.6,0.7c0.6,0.5,0.9,1.1,0.9,2c0,1.5-1.5,2.2-4.4,2.2c-0.9,0-2.7-0.3-5.3-1c-2.6-0.7-4.2-1-5-1c-1.1,0-2.7,0.3-4.8,1
		s-3.6,1-4.4,1c-3.1,0-4.7-0.9-4.7-2.7c0-0.5,0.2-0.9,0.5-1.3c0.3-0.3,1.5-0.6,3.5-0.8c2-0.2,3.4-0.8,4-2c0.7-1.2,1-2.6,1-4.1V197.5
		z"/>
	<path class="st1" d="M489.3,202.5c0,1.8,0.6,3.6,1.9,5.5c1.2,1.9,4.4,4.6,9.5,8.3c9.9,7,16.4,12.6,19.7,16.9
		c3.3,4.3,4.9,8.8,4.9,13.7c0,6.9-2.7,12.2-8,16c-5.3,3.8-11.1,5.7-17.5,5.7c-4.5,0-9.1-0.9-13.8-2.8s-7.1-3.8-7.1-5.9
		c0-0.5,0.1-1.5,0.2-2.8s0.2-3.1,0.2-5.2c0-0.7-0.1-1.6-0.2-2.6c-0.1-1-0.2-1.7-0.2-2c0-1.3,0.8-2,2.4-2c1.8,0,2.7,1.3,3,4
		c0.4,4.4,2,7.8,4.7,10.3c2.7,2.5,6.4,3.7,11.1,3.7c4.8,0,8.7-1.3,11.9-4c3.1-2.7,4.7-6.2,4.7-10.5c0-2.6-1.1-5.4-3.2-8.3
		c-2.1-2.9-7.6-7.6-16.6-13.9c-3.7-2.6-6.6-4.8-8.7-6.6c-2.1-1.8-3.9-4-5.3-6.5c-1.4-2.5-2.1-5.3-2.1-8.5c0-5.2,2.3-9.5,7-12.9
		c4.7-3.4,10.1-5.1,16.2-5.1c3.5,0,7.2,0.9,11.1,2.6c4,1.7,5.9,3.7,5.9,6c0,0.3,0,0.8-0.1,1.5s-0.1,1.7-0.1,3.1
		c0,0.4,0.1,1.1,0.2,2.1c0,2.4-0.8,3.6-2.5,3.6c-0.6,0-1.2-0.3-1.7-0.8c-0.6-0.6-0.9-1.2-0.9-1.8c0-3.5-1.2-6.2-3.6-8.1
		c-2.4-1.9-5.3-2.8-8.8-2.8c-3.9,0-7.3,1.1-10.1,3.3C490.7,197.5,489.3,199.9,489.3,202.5z"/>
</g>
<g class="st2">
	<path class="st3" d="M277.3,202.5c0,1.8,0.6,3.6,1.9,5.5c1.2,1.9,4.4,4.6,9.5,8.3c9.9,7,16.4,12.6,19.7,16.9
		c3.3,4.3,4.9,8.8,4.9,13.7c0,6.9-2.7,12.2-8,16c-5.3,3.8-11.1,5.7-17.5,5.7c-4.5,0-9.1-0.9-13.8-2.8s-7.1-3.8-7.1-5.9
		c0-0.5,0.1-1.5,0.2-2.8s0.2-3.1,0.2-5.2c0-0.7-0.1-1.6-0.2-2.6c-0.1-1-0.2-1.7-0.2-2c0-1.3,0.8-2,2.4-2c1.8,0,2.7,1.3,3,4
		c0.4,4.4,2,7.8,4.7,10.3c2.7,2.5,6.4,3.7,11.1,3.7c4.8,0,8.7-1.3,11.9-4c3.1-2.7,4.7-6.2,4.7-10.5c0-2.6-1.1-5.4-3.2-8.3
		c-2.1-2.9-7.6-7.6-16.6-13.9c-3.7-2.6-6.6-4.8-8.7-6.6c-2.1-1.8-3.9-4-5.3-6.5c-1.4-2.5-2.1-5.3-2.1-8.5c0-5.2,2.3-9.5,7-12.9
		c4.7-3.4,10.1-5.1,16.2-5.1c3.5,0,7.2,0.9,11.1,2.6c4,1.7,5.9,3.7,5.9,6c0,0.3,0,0.8-0.1,1.5s-0.1,1.7-0.1,3.1
		c0,0.4,0.1,1.1,0.2,2.1c0,2.4-0.8,3.6-2.5,3.6c-0.6,0-1.2-0.3-1.7-0.8c-0.6-0.6-0.9-1.2-0.9-1.8c0-3.5-1.2-6.2-3.6-8.1
		c-2.4-1.9-5.3-2.8-8.8-2.8c-3.9,0-7.3,1.1-10.1,3.3C278.7,197.5,277.3,199.9,277.3,202.5z"/>
	<path class="st3" d="M361.5,188c1.2,0,2.2,1.3,3,3.9c0.8,2.6,1.1,5,1.1,7.2c0,2.2-0.7,3.3-2.1,3.3c-0.5,0-1-0.2-1.4-0.5
		c-0.4-0.3-1-1.5-1.7-3.4c-0.7-2-1.8-3.3-3.3-4c-1.5-0.7-3.1-1.1-4.8-1.1c-2.5,0-4.2,0.6-5.3,1.7c-1.1,1.1-1.6,3-1.6,5.5v57.5
		c0,0.9,0.3,1.6,0.8,2.3c0.5,0.7,1.6,1.2,3.3,1.7c1.7,0.5,2.7,0.9,3,1.3c0.4,0.4,0.5,0.8,0.5,1.3c0,1.9-1,2.9-3,2.9
		c-1.1,0-2.7-0.2-4.8-0.5c-2.1-0.3-3.6-0.5-4.7-0.5c-0.9,0-2.3,0.1-4.1,0.4s-3.2,0.4-4.1,0.4c-1.1,0-2.1-0.3-2.9-0.8
		c-0.8-0.5-1.2-1.2-1.2-2.1c0-0.4,0.1-0.8,0.4-1.2c0.3-0.3,1.2-0.8,2.9-1.3c1.6-0.5,2.7-1.2,3.3-2.3c0.6-1,0.8-2.2,0.8-3.4v-58.1
		c0-3.5-2.4-5.3-7.1-5.3c-3.1,0-5.2,0.7-6.5,2.1c-0.8,0.8-1.4,2-1.7,3.7c-0.4,1.7-0.7,2.6-1.1,2.9c-0.4,0.3-0.9,0.5-1.4,0.5
		c-0.6,0-1.1-0.2-1.7-0.5c-0.5-0.3-0.8-0.7-0.8-1.2c0-3.9,0.3-7,1-9.3c0.7-2.2,1.7-3.3,3-3.3H361.5z"/>
	<path class="st3" d="M410.3,262.5c1.8,0,3.3-0.5,4.2-1.5c1-1,1.4-2.2,1.4-3.7c0-1.4,0.3-2.5,0.9-3.3c0.6-0.8,1.3-1.2,2.2-1.2
		s1.5,0.4,2.1,1.1c0.6,0.8,0.8,1.8,0.8,3s0.1,2.6,0.2,4.1s0.2,2.5,0.2,3c0,1.5-0.2,2.5-0.6,2.9c-0.4,0.5-1.5,0.7-3.2,0.7h-43.9
		c-3.1,0-5.2-0.2-6.3-0.7s-1.7-1.2-1.7-2.1c0-1.5,1-2.2,3.1-2.2c2.6,0,4.4-0.4,5.2-1.3c0.8-0.8,1.2-2.2,1.2-4v-49.6
		c0-5.4-0.1-8.9-0.3-10.6c-0.2-1.7-0.6-2.8-1.4-3.3c-0.7-0.5-2.2-0.7-4.3-0.7c-1.3,0-2.3-0.2-3-0.7c-0.7-0.5-1.1-1.1-1.1-1.9
		c0-0.7,0.3-1.3,0.9-1.8c0.6-0.5,1.4-0.8,2.3-0.8h41.8c1.7,0,2.7,0.3,3.3,1c0.5,0.7,0.9,1.7,1.1,3c0.2,1.3,0.4,3.5,0.4,6.6
		c0,1.4-0.6,2.1-1.8,2.1c-0.7,0-1.3-0.2-1.8-0.6c-0.5-0.4-1.1-1.5-1.7-3.2c-0.6-1.7-1.3-2.8-2-3.3c-0.7-0.5-1.4-0.7-2.3-0.7h-14.9
		c-2.5,0-4.1,0.4-4.7,1.1c-0.7,0.7-1,1.8-1,3.2v11.5c0,2.7,0.4,4.5,1.1,5.3c0.7,0.9,2.2,1.3,4.4,1.3h14.5c1.2,0,2.1-0.5,2.7-1.4
		c0.6-1,0.9-2,0.9-3.2c0-0.6,0.3-1.1,0.8-1.5c0.5-0.4,1.1-0.6,1.8-0.6c0.7,0,1.3,0.2,1.8,0.7c0.5,0.5,0.7,1.1,0.7,2
		c0,0.8-0.1,1.8-0.4,3.3c-0.2,1.4-0.4,2.6-0.4,3.5c0,1.4,0.2,2.8,0.5,4.3c0.3,1.5,0.5,2.4,0.5,2.8c0,0.8-0.3,1.5-0.8,2.1
		c-0.5,0.5-1.2,0.8-1.9,0.8c-0.8,0-1.4-0.3-1.9-1c-0.5-0.7-0.8-1.6-0.8-2.7c0-1.4-0.4-2.4-1.1-2.9s-1.9-0.9-3.6-0.9h-14.4
		c-1.3,0-2.4,0.3-3.2,0.8c-0.8,0.5-1.3,1.3-1.3,2.3V258c0,1.8,0.5,3,1.4,3.6c0.9,0.6,2.5,0.9,4.8,0.9H410.3z"/>
	<path class="st3" d="M432.1,197.5c0-2.9-2-4.3-5.9-4.3c-2.5,0-3.7-0.8-3.7-2.4c0-1.6,1.2-2.3,3.7-2.3c1.4,0,3,0.2,4.7,0.5
		s3.2,0.5,4.4,0.5c1,0,2.8-0.2,5.3-0.6c2.5-0.4,5.5-0.6,9-0.6c8.5,0,15.1,2,19.7,5.9c4.6,3.9,6.9,8.6,6.9,14c0,4.3-1.1,7.5-3.2,9.8
		c-2.1,2.3-5.1,4.3-8.8,6.1c-3.8,1.8-8.7,2.7-14.7,2.7c-3.5,0-5.3-1-5.3-3.1c0-0.5,0.2-1,0.7-1.3c0.5-0.3,1.2-0.5,2-0.5
		c0.2,0,0.8,0,1.8,0.1c1,0.1,1.9,0.1,2.8,0.1c3.9,0,7.2-1.2,9.7-3.6c2.6-2.4,3.8-5.8,3.8-10.1c0-4.1-1.6-7.7-4.7-10.8
		c-3.2-3.1-7.4-4.7-12.7-4.7c-1.9,0-3.3,0.3-4.1,0.8c-0.8,0.5-1.3,1.3-1.5,2.3c-0.2,1-0.3,2.6-0.3,4.8V258c0,2.8,1.8,4.2,5.5,4.2
		c1.8,0,3,0.2,3.6,0.7c0.6,0.5,0.9,1.1,0.9,2c0,1.5-1.5,2.2-4.4,2.2c-0.9,0-2.7-0.3-5.3-1c-2.6-0.7-4.2-1-5-1c-1.1,0-2.7,0.3-4.8,1
		s-3.6,1-4.4,1c-3.1,0-4.7-0.9-4.7-2.7c0-0.5,0.2-0.9,0.5-1.3c0.3-0.3,1.5-0.6,3.5-0.8c2-0.2,3.4-0.8,4-2c0.7-1.2,1-2.6,1-4.1V197.5
		z"/>
	<path class="st3" d="M489.3,202.5c0,1.8,0.6,3.6,1.9,5.5c1.2,1.9,4.4,4.6,9.5,8.3c9.9,7,16.4,12.6,19.7,16.9
		c3.3,4.3,4.9,8.8,4.9,13.7c0,6.9-2.7,12.2-8,16c-5.3,3.8-11.1,5.7-17.5,5.7c-4.5,0-9.1-0.9-13.8-2.8s-7.1-3.8-7.1-5.9
		c0-0.5,0.1-1.5,0.2-2.8s0.2-3.1,0.2-5.2c0-0.7-0.1-1.6-0.2-2.6c-0.1-1-0.2-1.7-0.2-2c0-1.3,0.8-2,2.4-2c1.8,0,2.7,1.3,3,4
		c0.4,4.4,2,7.8,4.7,10.3c2.7,2.5,6.4,3.7,11.1,3.7c4.8,0,8.7-1.3,11.9-4c3.1-2.7,4.7-6.2,4.7-10.5c0-2.6-1.1-5.4-3.2-8.3
		c-2.1-2.9-7.6-7.6-16.6-13.9c-3.7-2.6-6.6-4.8-8.7-6.6c-2.1-1.8-3.9-4-5.3-6.5c-1.4-2.5-2.1-5.3-2.1-8.5c0-5.2,2.3-9.5,7-12.9
		c4.7-3.4,10.1-5.1,16.2-5.1c3.5,0,7.2,0.9,11.1,2.6c4,1.7,5.9,3.7,5.9,6c0,0.3,0,0.8-0.1,1.5s-0.1,1.7-0.1,3.1
		c0,0.4,0.1,1.1,0.2,2.1c0,2.4-0.8,3.6-2.5,3.6c-0.6,0-1.2-0.3-1.7-0.8c-0.6-0.6-0.9-1.2-0.9-1.8c0-3.5-1.2-6.2-3.6-8.1
		c-2.4-1.9-5.3-2.8-8.8-2.8c-3.9,0-7.3,1.1-10.1,3.3C490.7,197.5,489.3,199.9,489.3,202.5z"/>
</g>
</svg>
