<svg id="Layer_1" data-name="Layer 1" xmlns="http://www.w3.org/2000/svg" viewBox="0 0 423.57 55.76"><defs><style>.cls-1{fill:#69c39a;}.cls-2,.cls-3{fill:#fff;}.cls-3{opacity:0.5;font-family:GillSans, Gill Sans;}.cls-3,.cls-4{font-size:25.29px;}.cls-4,.cls-6{fill:#f07575;}.cls-4{font-family:GillSans-Bold, Gill Sans;font-weight:700;}.cls-5{opacity:0.6;}.cls-7{opacity:0.3;}.cls-8{fill:#231f20;}</style></defs><title>Artboard 3</title><path class="cls-1" d="M418.81,53.76H4.75L51.85,5.6A13.43,13.43,0,0,1,61.3,2h301a13.43,13.43,0,0,1,9.44,3.6Z"/><path class="cls-2" d="M423.57,55.76H0L50.42,4.2A15.39,15.39,0,0,1,61.3,0h301a15.38,15.38,0,0,1,10.87,4.2Zm-414.06-4H414.06L370.29,7a11.49,11.49,0,0,0-8-3H61.3a11.5,11.5,0,0,0-8,3Z"/><text class="cls-3" transform="translate(59.29 35.63)">1950</text><text class="cls-4" transform="translate(138.09 35.63)">1960</text><text class="cls-3" transform="translate(228.89 35.63)">1970</text><text class="cls-3" transform="translate(313.69 35.63)">1980</text><g class="cls-5"><path class="cls-6" d="M122.77,36.94l-.38-.38a3.11,3.11,0,0,1-.37-3.95l2.36-3.46a2.25,2.25,0,0,0,0-2.53L122,23.15a3.11,3.11,0,0,1,.37-3.95l.38-.38a1,1,0,0,1,1.41,0L132,26.59a1.82,1.82,0,0,1,0,2.57l-7.77,7.77A1,1,0,0,1,122.77,36.94Z"/></g><g class="cls-5"><path class="cls-6" d="M207.57,36.94l-.38-.38a3.11,3.11,0,0,1-.37-3.95l2.36-3.46a2.25,2.25,0,0,0,0-2.53l-2.36-3.46a3.11,3.11,0,0,1,.37-3.95l.38-.38a1,1,0,0,1,1.41,0l7.77,7.77a1.82,1.82,0,0,1,0,2.57L209,36.94A1,1,0,0,1,207.57,36.94Z"/></g><g class="cls-7"><path class="cls-8" d="M292.37,36.94l-.38-.38a3.11,3.11,0,0,1-.37-3.95L294,29.14a2.25,2.25,0,0,0,0-2.53l-2.36-3.46A3.11,3.11,0,0,1,292,19.2l.38-.38a1,1,0,0,1,1.41,0l7.77,7.77a1.82,1.82,0,0,1,0,2.57l-7.77,7.77A1,1,0,0,1,292.37,36.94Z"/></g></svg>